<svg xmlns="http://www.w3.org/2000/svg" version="1.1" xmlns:xlink="http://www.w3.org/1999/xlink" xmlns:svgjs="http://svgjs.dev/svgjs" width="1500" height="935" viewBox="0 0 1500 935"><g transform="matrix(1,0,0,1,-0.9090909090909918,0.3785425101214628)"><svg viewBox="0 0 396 247" data-background-color="#ffffff" preserveAspectRatio="xMidYMid meet" height="935" width="1500" xmlns="http://www.w3.org/2000/svg" xmlns:xlink="http://www.w3.org/1999/xlink"><g id="tight-bounds" transform="matrix(1,0,0,1,0.2400000000000091,-0.09999999999999432)"><svg viewBox="0 0 395.52 247.2" height="247.2" width="395.52"><g><svg></svg></g><g><svg viewBox="0 0 395.52 247.2" height="247.2" width="395.52"><g><path d="M55.039 247.2l26.403-45.732 1.084 0-25.831 44.742h282.13l-25.831-44.742 1.084 0 26.403 45.732zM197.76 0l26.403 45.732-1.084 0-25.319-43.854-25.319 43.854-1.084 0z" fill="#bb84e8" fill-rule="nonzero" stroke="none" stroke-width="1" stroke-linecap="butt" stroke-linejoin="miter" stroke-miterlimit="10" stroke-dasharray="" stroke-dashoffset="0" font-family="none" font-weight="none" font-size="none" text-anchor="none" style="mix-blend-mode: normal" data-fill-palette-color="tertiary"></path></g><g transform="matrix(1,0,0,1,25.750564014543215,67.97999999999999)"><svg viewBox="0 0 344.01887197091355 111.24" height="111.24" width="344.01887197091355"><g><svg viewBox="0 0 486.78638387812 157.4044965393073" height="111.24" width="344.01887197091355"><g transform="matrix(1,0,0,1,0,21.754167032567082)"><svg viewBox="0 0 395.52 113.89616247417314" height="113.89616247417314" width="395.52"><g id="textblocktransform"><svg viewBox="0 0 395.52 113.89616247417314" height="113.89616247417314" width="395.52" id="textblock"><g><rect width="395.52" height="78.50847317316016" fill="none" stroke-width="4.05814644" stroke="#bb84e8" data-fill-palette-color="none" data-stroke-palette-color="tertiary"></rect><rect width="395.52" height="35.387689301012976" y="78.50847317316016" fill="#bb84e8" data-fill-palette-color="tertiary"></rect></g><g><svg viewBox="0 0 395.52 78.50847317316016" height="78.50847317316016" width="395.52"><g transform="matrix(1,0,0,1,10.62342,10.62342)"><svg width="374.27315999999996" viewBox="1.61 -36.5530768963 246.07 37.6530768963" height="57.261633173160156" data-palette-color="#bb84e8"><path d="M2.69-0.42L2.69-0.42 2.69-0.61Q2.98-1.12 3.45-1.31 3.93-1.49 4.47-1.53 5-1.56 5.57-1.55 6.13-1.54 6.57-1.68 7.01-1.83 7.29-2.23 7.57-2.64 7.57-3.49L7.57-3.49 7.57-7.84 7.57-12.18Q7.57-12.26 7.54-12.51 7.52-12.77 7.48-13.09 7.45-13.4 7.42-13.66 7.4-13.92 7.4-13.99L7.4-13.99 7.4-14.43Q7.4-14.77 7.41-15.05 7.42-15.33 7.43-15.6 7.45-15.87 7.48-16.17 7.52-16.48 7.57-16.89L7.57-16.89Q7.57-16.97 7.64-17.08 7.71-17.19 7.71-17.24L7.71-17.24 7.71-17.26 7.71-17.38Q7.71-17.46 7.64-17.75 7.57-18.04 7.57-18.14L7.57-18.14 7.57-23.46Q7.57-23.54 7.54-23.86 7.52-24.19 7.48-24.58 7.45-24.98 7.42-25.31 7.4-25.63 7.4-25.71L7.4-25.71 7.4-26.49 7.4-27.27Q7.4-27.37 7.42-27.62 7.45-27.88 7.47-28.17 7.5-28.47 7.52-28.74 7.54-29 7.57-29.13L7.57-29.13Q7.57-29.15 7.64-29.39 7.71-29.64 7.71-29.69L7.71-29.69 7.71-29.81 7.71-29.98Q7.67-30.35 7.6-30.8 7.54-31.25 7.48-31.71 7.42-32.18 7.36-32.62 7.3-33.06 7.23-33.4L7.23-33.4Q7.13-33.84 6.8-34.02 6.47-34.2 6.05-34.28 5.64-34.35 5.21-34.36 4.79-34.38 4.49-34.45L4.49-34.45Q4.47-34.45 4.2-34.52 3.93-34.59 3.56-34.68 3.2-34.77 2.82-34.88 2.44-34.99 2.22-35.06L2.22-35.06Q1.81-35.18 1.71-35.34 1.61-35.5 1.61-35.94L1.61-35.94 1.61-36.25Q1.66-36.35 1.97-36.46 2.27-36.57 2.39-36.55L2.39-36.55 3.49-36.55Q4.88-36.55 6.36-36.45 7.84-36.35 9.23-36.25L9.23-36.25Q9.28-36.25 9.53-36.19 9.79-36.13 9.86-36.08L9.86-36.08 9.89-36.08 9.99-36.08Q10.03-36.13 10.29-36.19 10.55-36.25 10.6-36.25L10.6-36.25Q10.62-36.25 10.77-36.16L10.77-36.16Q10.84-36.11 10.89-36.08L10.89-36.08 11.04-36.08 11.21-36.08Q11.23-36.11 11.36-36.16 11.5-36.21 11.66-36.25 11.82-36.3 11.95-36.34 12.08-36.38 12.11-36.38L12.11-36.38Q12.18-36.38 12.32-36.34 12.45-36.3 12.6-36.27 12.74-36.23 12.88-36.17 13.01-36.11 13.06-36.08L13.06-36.08 15.36-36.08Q16.72-36.08 18.04-36.17 19.36-36.25 20.73-36.25L20.73-36.25 21.09-36.25Q21.24-36.25 21.56-36.23 21.88-36.21 22.24-36.18 22.61-36.16 22.92-36.13 23.24-36.11 23.39-36.08L23.39-36.08Q23.44-36.13 23.62-36.19 23.8-36.25 23.85-36.25L23.85-36.25 23.93-36.25Q24.27-36.25 24.52-36.17 24.78-36.08 25.27-36.08L25.27-36.08Q25.85-36.08 26.46-36.17 27.08-36.25 27.66-36.25L27.66-36.25 28.27-36.25Q28.74-36.25 29.28-36.19 29.83-36.13 30.13-35.94L30.13-35.94Q30.15-35.94 30.21-35.82 30.27-35.69 30.27-35.64L30.27-35.64 30.27-34.81Q30.27-33.76 30.11-32.75 29.96-31.74 29.96-30.71L29.96-30.71Q29.96-30.15 30.04-29.63 30.13-29.1 30.13-28.52L30.13-28.52 30.13-28.17Q30.13-27.93 30.05-27.72 29.98-27.51 29.66-27.51L29.66-27.51Q29.27-27.51 28.99-27.86 28.71-28.2 28.49-28.65 28.27-29.1 28.11-29.58 27.95-30.05 27.83-30.32L27.83-30.32Q27.78-30.35 27.7-30.48 27.61-30.62 27.5-30.76 27.39-30.91 27.31-31.04 27.22-31.18 27.2-31.2L27.2-31.2Q26.9-31.74 26.59-32.29 26.27-32.84 25.87-33.3 25.46-33.76 24.95-34.07 24.44-34.38 23.73-34.45L23.73-34.45Q23.41-34.42 22.67-34.42 21.92-34.42 21.09-34.42L21.09-34.42Q20.26-34.42 19.52-34.42 18.77-34.42 18.51-34.45L18.51-34.45Q18.43-34.45 18.16-34.47 17.9-34.5 17.59-34.53 17.29-34.57 17.02-34.59 16.75-34.62 16.67-34.62L16.67-34.62Q16.63-34.62 16.48-34.59 16.33-34.57 16.16-34.53 15.99-34.5 15.83-34.47 15.67-34.45 15.6-34.45L15.6-34.45 15.14-34.45Q14.94-34.45 14.73-34.47 14.53-34.5 14.33-34.5L14.33-34.5Q13.87-34.5 13.5-34.33 13.13-34.16 12.89-33.52L12.89-33.52 12.89-31.05Q12.89-31.03 12.87-30.93 12.84-30.83 12.81-30.7 12.77-30.57 12.74-30.46 12.72-30.35 12.72-30.32L12.72-30.32 12.72-30.15 12.72-29.98Q12.72-29.93 12.78-29.7 12.84-29.47 12.89-29.42L12.89-29.42 12.89-20.87Q12.89-20.8 12.9-20.61 12.92-20.41 12.94-20.17 12.96-19.92 12.99-19.68 13.01-19.43 13.06-19.31L13.06-19.31Q13.09-18.97 13.2-18.84 13.31-18.7 13.67-18.7L13.67-18.7 14.11-18.7Q14.33-18.7 14.79-18.73 15.26-18.75 15.83-18.76 16.41-18.77 17.05-18.8 17.7-18.82 18.3-18.84 18.9-18.85 19.36-18.86 19.82-18.87 20.07-18.87L20.07-18.87Q20.39-18.95 20.72-18.99 21.04-19.04 21.37-19.13 21.7-19.21 21.98-19.36 22.27-19.51 22.49-19.78L22.49-19.78Q22.51-19.85 22.52-20.04 22.53-20.24 22.56-20.46 22.58-20.68 22.6-20.89 22.61-21.09 22.61-21.17L22.61-21.17 22.61-24.49Q22.61-25.05 23.07-25.38 23.54-25.71 24-25.71L24-25.71Q24.46-25.71 24.69-25.31 24.93-24.9 25.07-24.49L25.07-24.49Q25.02-24.22 25.02-23.52 25.02-22.83 25.02-22.02L25.02-22.02Q25.02-21.22 25.02-20.48 25.02-19.75 25.07-19.48L25.07-19.48Q25.07-19.34 25.1-18.92 25.12-18.51 25.15-18.04 25.17-17.58 25.2-17.16 25.22-16.75 25.24-16.6L25.24-16.6Q25.27-15.99 25.42-15.39 25.56-14.79 25.56-14.16L25.56-14.16 25.56-13.99Q25.54-13.77 25.5-13.4 25.46-13.04 25.44-12.68 25.42-12.33 25.4-12.05 25.39-11.77 25.39-11.72L25.39-11.72Q25.29-11.3 25.09-11.07 24.88-10.84 24.46-10.84L24.46-10.84Q23.83-10.84 23.49-11.06 23.14-11.28 22.95-11.89L22.95-11.89 22.95-14.43Q22.95-14.5 22.86-14.76 22.78-15.01 22.78-15.06L22.78-15.06Q22.78-15.14 22.75-15.33 22.73-15.53 22.69-15.75 22.66-15.97 22.63-16.17 22.61-16.38 22.61-16.46L22.61-16.46Q22.58-16.5 22.49-16.59 22.39-16.67 22.27-16.77 22.14-16.87 22.03-16.96 21.92-17.04 21.88-17.07L21.88-17.07 21.8-17.07 21.7-17.07Q20.31-16.89 18.91-16.81 17.5-16.72 16.09-16.72L16.09-16.72Q15.6-16.72 15.1-16.72 14.6-16.72 14.11-16.77L14.11-16.77Q13.6-16.65 13.35-16.56 13.11-16.48 13.02-16.33 12.94-16.19 12.93-15.92 12.92-15.65 12.89-15.21L12.89-15.21Q12.89-15.19 12.81-14.99 12.72-14.79 12.72-14.77L12.72-14.77 12.72-14.72 12.72-14.6Q12.72-14.58 12.74-14.44 12.77-14.31 12.81-14.15 12.84-13.99 12.87-13.85 12.89-13.72 12.89-13.7L12.89-13.7 12.89-13.53 12.89-13.38Q12.89-13.33 12.81-13.02 12.72-12.72 12.72-12.67L12.72-12.67 12.72-12.55 12.72-12.5Q12.72-12.43 12.74-12.16 12.77-11.89 12.81-11.57 12.84-11.25 12.87-11 12.89-10.74 12.89-10.67L12.89-10.67 12.89-6.1Q12.89-6.05 12.92-5.8 12.94-5.54 12.98-5.25 13.01-4.96 13.04-4.7 13.06-4.44 13.06-4.39L13.06-4.39 13.06-2.25Q13.18-1.71 13.67-1.39L13.67-1.39Q13.82-1.37 14.21-1.32 14.6-1.27 15.03-1.21 15.45-1.15 15.84-1.11 16.24-1.07 16.38-1.07L16.38-1.07 16.82-1.07Q17.85-1.07 18.84-1.15 19.82-1.22 20.9-1.22L20.9-1.22 22-1.22Q22.05-1.2 22.24-1.14 22.44-1.07 22.49-1.07L22.49-1.07Q22.51-1.07 22.67-1.1 22.83-1.12 23.01-1.15 23.19-1.17 23.35-1.2 23.51-1.22 23.56-1.22L23.56-1.22 25-1.22 26.42-1.22Q26.59-1.1 26.67-1.09 26.76-1.07 26.88-1.07L26.88-1.07 27.05-1.07Q27.25-1.07 27.58-1.14 27.91-1.2 27.95-1.22L27.95-1.22Q28.47-1.39 28.63-1.72 28.78-2.05 29.05-2.42L29.05-2.42Q29.08-2.44 29.16-2.53 29.25-2.61 29.35-2.72 29.44-2.83 29.54-2.92 29.64-3 29.66-3.03L29.66-3.03Q29.98-3.39 30.2-3.85 30.42-4.3 30.74-4.71L30.74-4.71Q30.74-4.76 30.94-4.94 31.15-5.13 31.18-5.18L31.18-5.18Q31.3-5.32 31.49-5.71 31.69-6.1 31.92-6.6 32.15-7.1 32.41-7.64 32.67-8.18 32.93-8.62 33.2-9.06 33.47-9.35 33.74-9.64 34.01-9.64L34.01-9.64Q34.28-9.64 34.33-9.4 34.38-9.16 34.38-8.91L34.38-8.91 34.38-8.62 34.38-8.33Q34.38-8.13 34.36-7.97 34.35-7.81 34.23-7.62L34.23-7.62 33.45-2.12 33.45-2 33.45-1.86Q33.45-1.76 33.52-1.43 33.59-1.1 33.59-1.07L33.59-1.07Q33.59-0.73 33.45-0.44 33.3-0.15 32.98 0L32.98 0 28.71 0Q28.61 0 28.19 0.05 27.76 0.1 27.27 0.16 26.78 0.22 26.37 0.27 25.95 0.32 25.85 0.32L25.85 0.32 25.39 0.32Q25.29 0.32 25.07 0.37 24.85 0.42 24.78 0.44L24.78 0.44 20.73 0.44 16.67 0.44Q15.06 0.42 13.42 0.21 11.77 0 10.11 0L10.11 0Q9.4 0 8.7 0.1 8.01 0.2 7.31 0.31 6.62 0.42 5.92 0.51 5.22 0.61 4.49 0.61L4.49 0.61 3.3 0.61Q3.03 0.39 2.86 0.16 2.69-0.07 2.69-0.42ZM41.01-11.33L41.01-11.33Q40.99-11.35 40.93-11.46 40.87-11.57 40.82-11.6L40.82-11.6Q40.82-11.62 40.67-11.77L40.67-11.77Q40.6-11.84 40.52-11.89L40.52-11.89Q40.26-12.48 40.12-13.12 39.99-13.77 39.79-14.36L39.79-14.36Q39.69-14.62 39.48-15.27 39.26-15.92 39.01-16.65 38.77-17.38 38.55-18.03 38.33-18.68 38.23-18.95L38.23-18.95Q37.89-19.53 37.5-19.95 37.11-20.36 36.55-20.8L36.55-20.8Q36.47-20.87 36.42-20.95L36.42-20.95Q36.28-21.09 36.25-21.09L36.25-21.09Q36.11-21.12 35.83-21.11 35.54-21.09 35.26-21.13 34.98-21.17 34.78-21.29 34.57-21.41 34.57-21.7L34.57-21.7 34.57-21.83Q34.79-22.05 35.01-22.09 35.23-22.14 35.47-22.14L35.47-22.14Q35.67-22.14 35.85-22.13 36.03-22.12 36.18-22.12L36.18-22.12Q36.37-22.12 36.55-22.16 36.72-22.19 36.91-22.31L36.91-22.31 39.18-22.31 39.5-22.12 45.11-22.12Q45.33-22.12 45.4-21.98 45.46-21.85 45.46-21.7L45.46-21.7Q45.46-21.44 45.31-21.28 45.16-21.12 44.97-20.92L44.97-20.92Q44.72-20.7 44.37-20.63 44.02-20.56 43.69-20.47 43.36-20.39 43.11-20.18 42.87-19.97 42.87-19.48L42.87-19.48 42.87-19.41Q43.14-18.02 43.67-16.7 44.21-15.38 44.68-14.06L44.68-14.06Q44.82-13.65 44.91-13.15 44.99-12.65 45.11-12.23L45.11-12.23Q45.24-11.74 45.44-11.29 45.65-10.84 45.85-10.42L45.85-10.42Q45.92-10.38 45.97-10.21 46.02-10.03 46.02-9.94L46.02-9.94Q46.29-9.08 46.64-8.24 46.99-7.4 47.41-6.57L47.41-6.57 47.53-6.45 47.65-6.45 47.7-6.45Q47.75-6.45 47.79-6.51 47.82-6.57 47.87-6.57L47.87-6.57Q48.12-7.08 48.39-7.7 48.65-8.33 48.9-8.98 49.14-9.64 49.35-10.29 49.56-10.94 49.7-11.47L49.7-11.47Q49.73-11.52 49.77-11.77 49.8-12.01 49.85-12.29 49.9-12.57 49.94-12.83 49.97-13.09 50-13.16L50-13.16Q50-13.23 50.06-13.38 50.12-13.53 50.12-13.57L50.12-13.57Q50.61-14.53 50.93-15.47 51.24-16.41 51.51-17.43L51.51-17.43Q51.71-18.07 51.94-18.65 52.17-19.24 52.17-19.97L52.17-19.97Q52.17-20.34 51.69-20.47 51.22-20.61 50.63-20.72 50.05-20.83 49.57-21.02 49.09-21.22 49.09-21.7L49.09-21.7Q49.12-21.75 49.14-21.83L49.14-21.83Q49.17-21.92 49.22-21.97L49.22-21.97Q49.27-22.05 49.39-22.22 49.51-22.39 49.56-22.49L49.56-22.49 50.53-22.49Q51.22-22.49 51.87-22.38 52.51-22.27 53.17-22.27L53.17-22.27Q53.9-22.27 54.59-22.38 55.27-22.49 55.98-22.49L55.98-22.49Q56.15-22.49 56.41-22.45 56.66-22.41 56.89-22.33 57.13-22.24 57.3-22.08 57.47-21.92 57.47-21.7L57.47-21.7Q57.47-21.36 57.04-21.13 56.61-20.9 56.05-20.69 55.49-20.48 54.97-20.29 54.44-20.09 54.27-19.85L54.27-19.85Q54-19.48 53.83-19.02 53.66-18.55 53.54-18.07 53.42-17.58 53.31-17.09 53.2-16.6 53.07-16.16L53.07-16.16Q52.66-14.84 52.1-13.57 51.54-12.3 51.07-10.99L51.07-10.99Q50.36-9.01 49.48-7.1 48.61-5.2 47.87-3.2L47.87-3.2Q47.82-3.13 47.71-2.8 47.6-2.47 47.48-2.09 47.36-1.71 47.25-1.37 47.14-1.03 47.14-0.95L47.14-0.95Q46.95-0.46 46.56-0.01 46.16 0.44 45.58 0.44L45.58 0.44Q45.14 0.44 44.97 0.26 44.8 0.07 44.55-0.32L44.55-0.32Q44.33-0.63 44.31-0.81 44.28-0.98 44.19-1.39L44.19-1.39Q43.5-3.96 42.64-6.36 41.77-8.76 41.01-11.33ZM65.57-0.17L65.57-0.17 65.45-0.17Q65.38-0.17 65.1-0.11 64.81-0.05 64.69 0L64.69 0 59.05 0Q59-0.07 58.93-0.17L58.93-0.17Q58.78-0.37 58.76-0.44L58.76-0.44 58.76-0.59Q58.76-0.9 59.02-1.07 59.27-1.25 59.61-1.32 59.96-1.39 60.32-1.42 60.69-1.44 60.88-1.51L60.88-1.51Q61.05-1.61 61.29-1.79 61.52-1.98 61.62-2.12L61.62-2.12Q61.64-2.2 61.68-2.4 61.71-2.61 61.74-2.83 61.76-3.05 61.77-3.25 61.79-3.44 61.79-3.52L61.79-3.52Q61.84-4 61.98-4.5 62.13-5 62.13-5.49L62.13-5.49 62.13-8.4Q62.13-8.42 62.15-8.54 62.18-8.67 62.19-8.79 62.2-8.91 62.23-9.02 62.25-9.13 62.25-9.16L62.25-9.16 62.25-9.28 62.25-9.3Q62.25-9.42 62.2-9.72 62.15-10.01 62.13-10.13L62.13-10.13 62.03-15.92 62.01-16.36 62.01-20.19Q62.01-20.24 61.86-20.46 61.71-20.68 61.62-20.8L61.62-20.8Q61.42-21.09 60.96-21.25 60.49-21.41 60-21.53 59.52-21.66 59.14-21.83 58.76-22 58.76-22.31L58.76-22.31Q58.76-22.53 58.89-22.66 59.03-22.78 59.21-22.84 59.39-22.9 59.61-22.91 59.83-22.92 59.98-22.92L59.98-22.92 60.27-22.92Q60.37-22.92 60.66-22.91 60.96-22.9 61.26-22.88 61.57-22.85 61.85-22.84 62.13-22.83 62.25-22.8L62.25-22.8 62.4-22.63 62.52-22.63 62.57-22.63Q62.62-22.68 62.8-22.74 62.98-22.8 63.03-22.8L63.03-22.8 65.94-22.8Q66.04-22.8 66.33-22.84 66.62-22.88 66.67-22.92L66.67-22.92 73.43-22.92Q73.48-22.88 73.65-22.84 73.82-22.8 73.9-22.8L73.9-22.8 75.58-22.8Q76.07-22.75 76.34-22.46 76.61-22.17 76.8-21.7L76.8-21.7 76.8-19.9Q76.8-19.85 76.89-19.58 76.97-19.31 76.97-19.29L76.97-19.29 76.97-19.07Q76.97-18.97 76.94-18.7 76.9-18.43 76.83-18.15 76.75-17.87 76.64-17.65 76.53-17.43 76.39-17.43L76.39-17.43 76.36-17.43Q75.95-17.75 75.73-18.02 75.51-18.29 75.29-18.65L75.29-18.65Q75.24-18.75 75.13-18.97 75.02-19.19 74.95-19.29L74.95-19.29Q74.82-19.6 74.58-19.98 74.34-20.36 74.02-20.68 73.7-21 73.31-21.2 72.92-21.41 72.53-21.41L72.53-21.41 67.28-21.41Q67.16-21.53 67.07-21.56 66.99-21.58 66.84-21.58L66.84-21.58 66.67-21.58Q66.57-21.53 66.34-21.42 66.11-21.31 66.06-21.24L66.06-21.24Q66.04-21.24 66.02-21.13 66.01-21.02 66-20.89 65.99-20.75 65.97-20.64 65.96-20.53 65.94-20.51L65.94-20.51Q65.94-20.46 65.88-20.35 65.82-20.24 65.77-20.19L65.77-20.19Q65.77-19.95 65.74-19.36 65.72-18.77 65.69-18.13 65.67-17.48 65.64-16.89 65.62-16.31 65.6-16.09L65.6-16.09 65.6-15.55 65.6-15.19Q65.62-15.04 65.64-14.72 65.67-14.4 65.69-14.06 65.72-13.72 65.74-13.43 65.77-13.13 65.77-13.01L65.77-13.01Q65.86-12.94 66.08-12.85 66.3-12.77 66.54-12.7 66.77-12.62 66.99-12.59 67.21-12.55 67.33-12.55L67.33-12.55 67.62-12.55Q68.23-12.6 68.85-12.62 69.48-12.65 70-12.82 70.53-12.99 70.93-13.38 71.33-13.77 71.48-14.55L71.48-14.55Q71.48-14.62 71.5-14.84 71.53-15.06 71.55-15.31 71.58-15.55 71.6-15.77 71.63-15.99 71.63-16.09L71.63-16.09Q71.72-16.28 72.04-16.49 72.36-16.7 72.58-16.7L72.58-16.7Q72.94-16.7 73.12-16.42 73.29-16.14 73.29-15.82L73.29-15.82Q73.29-15.55 73.27-15.33 73.26-15.11 73.16-14.84L73.16-14.84 73.16-9.96Q73.26-9.77 73.27-9.57 73.29-9.38 73.29-9.18L73.29-9.18 73.29-8.52 73.29-8.08Q73.29-7.71 73.15-7.45 73.02-7.18 72.53-7.18L72.53-7.18Q72.14-7.18 71.92-7.46 71.7-7.74 71.58-8.18 71.45-8.62 71.38-9.11 71.31-9.59 71.2-10.03 71.09-10.47 70.91-10.75 70.72-11.04 70.36-11.04L70.36-11.04 70.09-11.04Q70.04-11.01 69.83-10.99 69.62-10.96 69.38-10.94 69.14-10.91 68.94-10.89 68.75-10.86 68.72-10.86L68.72-10.86 68.23-10.86 67.01-10.86Q66.55-10.77 66.28-10.51 66.01-10.25 65.86-9.9 65.72-9.55 65.68-9.13 65.64-8.72 65.64-8.28L65.64-8.28 65.64-7.42Q65.64-7.28 65.62-7.13 65.6-6.98 65.6-6.86L65.6-6.86Q65.6-6.81 65.52-6.57 65.45-6.32 65.45-6.27L65.45-6.27 65.45-4.71 65.45-4.22Q65.45-3.66 65.5-3.17 65.55-2.69 65.77-2.12L65.77-2.12Q66.35-1.78 66.9-1.76 67.45-1.73 68.06-1.68L68.06-1.68Q68.16-1.68 68.5-1.64 68.84-1.59 69.23-1.51 69.62-1.44 69.97-1.39 70.31-1.34 70.41-1.34L70.41-1.34 71.75-1.34Q71.75-1.32 71.88-1.21 72.02-1.1 72.09-1.07L72.09-1.07 72.14-1.07 72.21-1.07Q72.29-1.1 72.36-1.15L72.36-1.15Q72.41-1.17 72.46-1.2 72.5-1.22 72.53-1.22L72.53-1.22Q72.58-1.22 72.68-1.09 72.77-0.95 72.82-0.9L72.82-0.9 72.9-0.9 72.99-0.9Q72.99-0.95 73.04-1.09 73.09-1.22 73.16-1.22L73.16-1.22 73.29-1.22Q74.75-2.08 75.75-3.34 76.75-4.61 77.7-5.96L77.7-5.96 77.78-5.98Q77.8-5.98 77.81-5.97 77.83-5.96 77.85-5.96L77.85-5.96 77.88-5.96Q77.9-5.96 78.01-5.83 78.12-5.71 78.14-5.66L78.14-5.66 78.14-5.13 78.14-4.59Q78.14-4.44 78.1-4.05 78.05-3.66 78.01-3.22 77.97-2.78 77.92-2.39 77.88-2 77.88-1.86L77.88-1.86Q77.73-1.66 77.69-1.44 77.66-1.22 77.62-1.01 77.58-0.81 77.52-0.62 77.46-0.44 77.27-0.29L77.27-0.29Q77.12-0.29 76.72-0.28 76.31-0.27 75.87-0.24 75.43-0.22 75.04-0.2 74.65-0.17 74.51-0.17L74.51-0.17Q74.48-0.17 74.35-0.12 74.21-0.07 74.06 0 73.9 0.07 73.76 0.12 73.63 0.17 73.6 0.17L73.6 0.17Q73.55 0.17 73.29 0.09 73.02 0 72.99 0L72.99 0 72.9 0Q72.33 0 71.75 0.09 71.16 0.17 70.53 0.17L70.53 0.17Q69.28 0.17 68.05 0 66.82-0.17 65.57-0.17ZM81.22-0.78L81.22-0.78Q81.22-1.17 81.47-1.43 81.73-1.68 82.1-1.84 82.46-2 82.85-2.11 83.24-2.22 83.51-2.34L83.51-2.34Q84.03-2.61 84.34-2.87 84.66-3.13 84.83-3.43 85-3.74 85.08-4.14 85.15-4.54 85.15-5.13L85.15-5.13 85.15-8.01Q85.15-8.06 85.17-8.24 85.2-8.42 85.23-8.63 85.27-8.84 85.3-9.01 85.32-9.18 85.32-9.23L85.32-9.23 85.32-9.3 85.32-9.4Q85.32-9.45 85.3-9.67 85.27-9.89 85.23-10.14 85.2-10.4 85.17-10.62 85.15-10.84 85.15-10.91L85.15-10.91 85.15-11.08 85.15-11.23Q85.15-11.28 85.17-11.5 85.2-11.72 85.23-11.98 85.27-12.23 85.3-12.46 85.32-12.7 85.32-12.74L85.32-12.74Q85.34-12.92 85.37-13.39 85.39-13.87 85.42-14.4 85.44-14.94 85.47-15.42 85.49-15.89 85.49-16.09L85.49-16.09Q85.59-16.33 85.6-16.49 85.61-16.65 85.61-16.85L85.61-16.85Q85.61-17.41 85.31-17.93 85-18.46 84.56-18.92 84.12-19.38 83.62-19.79 83.12-20.19 82.73-20.51L82.73-20.51Q82.71-20.51 82.66-20.56 82.61-20.61 82.61-20.68L82.61-20.68Q82.54-20.73 82.41-20.87 82.29-21.02 82.15-21.19 82-21.36 81.87-21.52 81.73-21.68 81.68-21.73L81.68-21.73 81.68-21.9Q81.68-22.12 81.8-22.25 81.93-22.39 82.12-22.63L82.12-22.63Q82.24-22.75 82.28-22.78 82.32-22.8 82.44-22.8L82.44-22.8 82.71-22.8 83.22-22.8Q83.24-22.78 83.38-22.75 83.51-22.73 83.66-22.71 83.81-22.68 83.94-22.66 84.07-22.63 84.1-22.63L84.1-22.63 84.54-22.63 85.61-22.63Q85.71-22.61 86.02-22.49 86.32-22.36 86.39-22.36L86.39-22.36Q86.52-22.34 86.8-22.31 87.08-22.29 87.39-22.27 87.71-22.24 87.99-22.22 88.27-22.19 88.4-22.19L88.4-22.19 89.01-21.58Q89.03-21.53 89.09-21.42 89.15-21.31 89.21-21.18 89.27-21.04 89.34-20.94 89.4-20.83 89.42-20.8L89.42-20.8Q89.45-20.78 89.65-20.54 89.86-20.31 90.15-20 90.45-19.68 90.76-19.35 91.08-19.02 91.28-18.82L91.28-18.82 91.3-18.8Q91.33-18.77 91.33-18.76 91.33-18.75 91.35-18.73L91.35-18.73Q91.37-18.68 91.42-18.65L91.42-18.65Q91.47-18.65 91.59-18.59 91.72-18.53 91.72-18.51L91.72-18.51Q91.76-18.51 91.8-18.3 91.84-18.09 91.89-18.04L91.89-18.04Q91.91-17.99 92.07-17.8 92.23-17.6 92.41-17.37 92.6-17.14 92.75-16.94 92.91-16.75 92.96-16.7L92.96-16.7Q92.96-16.65 93.07-16.5 93.18-16.36 93.3-16.17 93.43-15.99 93.55-15.83 93.67-15.67 93.72-15.63L93.72-15.63Q93.79-15.55 94.11-15.25 94.43-14.94 94.78-14.59 95.13-14.23 95.44-13.92 95.74-13.6 95.82-13.5L95.82-13.5Q95.89-13.43 96.06-13.17 96.23-12.92 96.44-12.6 96.65-12.28 96.82-12.02 96.99-11.77 97.06-11.69L97.06-11.69Q97.11-11.62 97.28-11.44 97.45-11.25 97.65-11.05 97.84-10.84 98.03-10.66 98.21-10.47 98.28-10.45L98.28-10.45Q98.33-10.4 98.49-10.22 98.65-10.03 98.82-9.83 98.99-9.62 99.15-9.44 99.31-9.25 99.36-9.23L99.36-9.23Q99.38-9.2 99.49-9.12 99.6-9.03 99.74-8.94 99.87-8.84 99.97-8.74 100.07-8.64 100.09-8.62L100.09-8.62Q100.31-8.45 100.46-8.25 100.6-8.06 100.87-8.01L100.87-8.01Q100.97-8.33 101.31-8.62L101.31-8.62 101.31-9.47 101.31-10.3Q101.31-10.35 101.29-10.52 101.26-10.69 101.24-10.89 101.21-11.08 101.19-11.27 101.16-11.45 101.16-11.52L101.16-11.52 101.16-14.4Q101.16-14.45 101.14-14.65 101.12-14.84 101.08-15.05 101.04-15.26 101.02-15.43 100.99-15.6 100.99-15.63L100.99-15.63 100.99-15.87Q100.99-16.31 101.08-16.71 101.16-17.11 101.16-17.5L101.16-17.5Q101.16-17.99 101.13-18.48 101.09-18.97 100.99-19.43L100.99-19.43Q100.94-19.68 100.65-19.98 100.36-20.29 100.26-20.34L100.26-20.34Q100.02-20.51 99.44-20.61 98.87-20.7 98.27-20.85 97.67-21 97.22-21.24 96.77-21.48 96.77-21.95L96.77-21.95Q96.77-22.22 96.95-22.4 97.14-22.58 97.38-22.63L97.38-22.63Q97.48-22.66 97.67-22.69 97.87-22.73 98.09-22.75 98.31-22.78 98.49-22.79 98.67-22.8 98.72-22.8L98.72-22.8Q98.8-22.8 98.97-22.75 99.14-22.71 99.24-22.63L99.24-22.63 103.17-22.63 103.46-22.8 106.93-22.8Q107-22.8 107.11-22.61 107.22-22.41 107.27-22.36L107.27-22.36 107.27-22.12 107.27-21.9Q107.15-21.68 106.9-21.52 106.66-21.36 106.39-21.25 106.12-21.14 105.85-21.07 105.58-21 105.41-20.95L105.41-20.95 104.68-20.95Q104.63-20.95 104.48-20.84 104.34-20.73 104.24-20.68L104.24-20.68Q104.17-20.61 103.91-20.42 103.65-20.24 103.61-20.19L103.61-20.19Q103.34-20 103.28-19.76 103.22-19.53 103.17-19.12L103.17-19.12Q103.17-18.95 103.14-18.49 103.12-18.04 103.08-17.53 103.04-17.02 103.02-16.58 103-16.14 103-15.97L103-15.97Q103-15.89 102.97-15.7 102.95-15.5 102.91-15.26 102.87-15.01 102.85-14.82 102.82-14.62 102.82-14.55L102.82-14.55 102.82-10.3Q102.82-10.23 102.8-10.03 102.78-9.84 102.76-9.61 102.75-9.38 102.73-9.17 102.7-8.96 102.7-8.91L102.7-8.91 102.7-7.18 102.7-5.42Q102.75-5.37 102.79-5.27 102.82-5.18 102.82-5.13L102.82-5.13Q102.82-5.08 102.76-4.9 102.7-4.71 102.7-4.69L102.7-4.69 102.7-4.17Q102.7-3.66 102.76-3.16 102.82-2.66 102.82-2.1L102.82-2.1 102.82-1.2Q102.78-0.83 102.48-0.54 102.19-0.24 101.8-0.24L101.8-0.24Q101.24-0.24 100.79-0.61 100.33-0.98 99.92-1.32L99.92-1.32Q99.85-1.44 99.75-1.54L99.75-1.54Q99.68-1.64 99.61-1.75 99.55-1.86 99.5-1.93L99.5-1.93Q98.72-3 97.88-4.02 97.04-5.03 96.16-6.02 95.28-7.01 94.39-8 93.5-8.98 92.67-10.01L92.67-10.01Q92.6-10.06 92.49-10.16 92.38-10.25 92.33-10.3L92.33-10.3Q91.74-10.77 91.36-11.3 90.98-11.84 90.5-12.48L90.5-12.48Q90.47-12.48 90.34-12.6 90.2-12.72 90.04-12.87 89.89-13.01 89.75-13.15 89.62-13.28 89.59-13.33L89.59-13.33Q89.59-13.38 89.45-13.65 89.3-13.92 89.25-13.94L89.25-13.94Q89.25-14.01 89.1-14.17 88.96-14.33 88.77-14.51 88.59-14.7 88.43-14.84 88.27-14.99 88.22-15.01L88.22-15.01Q88.2-15.04 88.15-15.19L88.15-15.19Q88.13-15.26 88.08-15.33L88.08-15.33Q88.01-15.41 87.77-15.63 87.54-15.84 87.44-15.97L87.44-15.97Q87.42-15.97 87.37-15.89 87.32-15.82 87.32-15.8L87.32-15.8Q87.27-15.7 87.16-15.41 87.05-15.11 87-15.01L87-15.01 87-13.28 87-12.11Q87-11.43 87.03-10.8 87.05-10.18 87.18-9.4L87.18-9.4Q87.2-8.96 87.31-8.48 87.42-8.01 87.44-7.54L87.44-7.54 87.44-5.42Q87.44-5.32 87.47-5.07 87.49-4.81 87.52-4.52 87.54-4.22 87.57-3.96 87.59-3.69 87.61-3.56L87.61-3.56Q87.66-3.08 87.82-2.83 87.98-2.59 88.4-2.25L88.4-2.25Q88.57-2.05 88.88-2.05L88.88-2.05Q89.01-2.05 89.15-2.08 89.3-2.1 89.42-2.1L89.42-2.1Q89.64-2.05 89.9-1.94 90.15-1.83 90.35-1.65 90.54-1.46 90.68-1.25 90.81-1.03 90.81-0.78L90.81-0.78Q90.81-0.37 90.53-0.16 90.25 0.05 89.84 0.05L89.84 0.05 89.59 0.05Q89.54 0.05 89.36 0.02 89.18 0 88.97-0.01 88.76-0.02 88.59-0.05 88.42-0.07 88.4-0.07L88.4-0.07Q88.3-0.07 87.98-0.01 87.66 0.05 87.61 0.05L87.61 0.05 85.93 0.05Q85.81 0.05 85.37 0.1 84.93 0.15 84.42 0.2 83.9 0.24 83.46 0.29 83.02 0.34 82.9 0.37L82.9 0.37 82.71 0.37Q82.51 0.37 82.26 0.27 82 0.17 81.77 0.01 81.54-0.15 81.38-0.35 81.22-0.56 81.22-0.78ZM114.25-0.83L114.25-0.83Q114.25-1.1 114.55-1.39 114.86-1.68 115.18-1.73L115.18-1.73 117.64-2.05Q117.76-2.05 117.96-2.32 118.15-2.59 118.25-2.78L118.25-2.78 118.25-4.03Q118.25-5.1 118.19-6.14 118.13-7.18 118.13-8.28L118.13-8.28 118.13-8.62Q118.23-9.81 118.24-11.06 118.25-12.3 118.25-13.57L118.25-13.57 118.25-16.04 118.25-16.48Q118.2-16.87 118.19-17.44 118.18-18.02 118.15-18.55L118.15-18.55Q118.13-19.19 118.11-19.85L118.11-19.85 117.93-19.97Q117.91-19.97 117.63-20 117.35-20.02 116.96-20.04 116.57-20.07 116.16-20.09 115.76-20.12 115.52-20.14L115.52-20.14 115.1-20.14 114.74-20.14Q114.61-20.14 114.33-20.13 114.05-20.12 113.75-20.09 113.44-20.07 113.15-20.03 112.86-20 112.76-19.97L112.76-19.97Q112.71-19.97 112.6-19.93 112.49-19.9 112.44-19.85L112.44-19.85Q112.37-19.8 112.17-19.65L112.17-19.65Q112.07-19.58 111.98-19.53L111.98-19.53Q111.95-19.48 111.87-19.34 111.78-19.19 111.67-19.01 111.56-18.82 111.48-18.66 111.39-18.51 111.37-18.46L111.37-18.46Q111.34-18.43 111.28-18.35 111.22-18.26 111.15-18.15 111.07-18.04 111-17.94 110.93-17.85 110.93-17.85L110.93-17.85Q110.85-17.77 110.73-17.58 110.61-17.38 110.46-17.16 110.32-16.94 110.2-16.75 110.07-16.55 110.02-16.48L110.02-16.48Q109.85-16.36 109.72-16.35 109.58-16.33 109.44-16.33L109.44-16.33Q109.24-16.33 109.12-16.37 109-16.41 108.95-16.6L108.95-16.6 108.95-17.8Q108.95-18.92 109.21-19.96 109.46-21 109.56-22.12L109.56-22.12Q109.61-22.31 109.78-22.38 109.95-22.44 110.1-22.44L110.1-22.44 110.22-22.44 110.63-22.44Q110.66-22.44 110.77-22.28 110.88-22.12 110.93-22.12L110.93-22.12Q111.03-22.07 111.29-22.02 111.56-21.97 111.68-21.97L111.68-21.97 115.05-21.97Q115.37-21.85 115.48-21.84 115.59-21.83 115.83-21.83L115.83-21.83 116.13-21.83Q116.25-21.83 116.76-21.85 117.28-21.88 117.86-21.9 118.45-21.92 118.97-21.95 119.5-21.97 119.62-21.97L119.62-21.97 128.43-21.97Q128.48-21.97 128.63-22.01 128.77-22.05 128.95-22.09 129.12-22.14 129.27-22.19 129.43-22.24 129.51-22.27L129.51-22.27Q129.6-22.34 129.7-22.46 129.8-22.58 129.92-22.72 130.04-22.85 130.19-22.95 130.34-23.05 130.53-23.05L130.53-23.05Q130.78-23.05 130.95-22.9 131.12-22.75 131.23-22.55 131.34-22.34 131.4-22.09 131.46-21.85 131.46-21.66L131.46-21.66Q131.48-21.53 131.51-21.33 131.53-21.12 131.56-20.9 131.58-20.68 131.61-20.51 131.63-20.34 131.63-20.31L131.63-20.31 131.63-18.58 131.63-16.77Q131.53-16.55 131.44-16.44 131.34-16.33 131.04-16.33L131.04-16.33 130.85-16.33Q130.8-16.36 130.57-16.6 130.34-16.85 130.24-16.94L130.24-16.94Q130.19-17.02 130.04-17.26 129.9-17.5 129.73-17.79 129.56-18.07 129.4-18.31 129.24-18.55 129.16-18.63L129.16-18.63Q129.12-18.7 128.96-18.87 128.8-19.04 128.6-19.24 128.41-19.43 128.22-19.6 128.04-19.78 127.97-19.85L127.97-19.85Q127.7-19.9 127.38-20.02 127.07-20.14 126.75-20.14L126.75-20.14 126.58-20.14Q126.55-20.14 126.28-20.06 126.02-19.97 125.97-19.97L125.97-19.97 125.92-19.97 125.8-19.97Q125.75-20 125.45-20.06 125.16-20.12 124.83-20.18 124.5-20.24 124.21-20.28 123.92-20.31 123.84-20.31L123.84-20.31 123.55-20.31Q122.84-20.31 122.62-19.84 122.4-19.36 122.4-18.75L122.4-18.75Q122.4-18.31 122.44-17.88 122.48-17.46 122.48-17.11L122.48-17.11Q122.48-17.07 122.45-16.93 122.43-16.8 122.4-16.64 122.38-16.48 122.35-16.35 122.33-16.21 122.33-16.16L122.33-16.16Q122.33-16.04 122.35-15.59 122.38-15.14 122.4-14.6 122.43-14.06 122.45-13.59 122.48-13.11 122.48-12.96L122.48-12.96 122.48-11.69 122.48-8.45Q122.5-8.13 122.54-7.35 122.57-6.57 122.62-5.69 122.67-4.81 122.71-4.04 122.74-3.27 122.77-2.95L122.77-2.95Q122.94-2.64 123.29-2.47 123.65-2.29 124.07-2.19 124.5-2.08 124.94-1.99 125.38-1.9 125.75-1.77 126.11-1.64 126.34-1.42 126.58-1.2 126.58-0.83L126.58-0.83Q126.58-0.49 126.36-0.28 126.14-0.07 125.83 0.04 125.53 0.15 125.19 0.2 124.84 0.24 124.62 0.24L124.62 0.24Q124.55 0.24 124.31 0.16 124.06 0.07 123.99 0.07L123.99 0.07Q123.84 0.05 123.5 0 123.16-0.05 123.09-0.05L123.09-0.05 120.64-0.05Q120.6-0.07 120.44-0.13 120.28-0.2 120.23-0.2L120.23-0.2Q120.2-0.2 120.06-0.17 119.91-0.15 119.74-0.12 119.57-0.1 119.4-0.07 119.23-0.05 119.16-0.05L119.16-0.05Q118.42 0.12 117.81 0.16 117.2 0.2 116.42 0.24L116.42 0.24Q116.35 0.24 116.16 0.27 115.98 0.29 115.77 0.33 115.57 0.37 115.4 0.39 115.22 0.42 115.18 0.42L115.18 0.42Q114.98 0.42 114.82 0.28 114.66 0.15 114.53-0.06 114.39-0.27 114.32-0.48 114.25-0.68 114.25-0.83ZM157.48-30.96L157.48-30.96Q157.48-31.2 157.45-31.56 157.41-31.91 157.32-32.26 157.24-32.62 157.06-32.9 156.87-33.18 156.58-33.25L156.58-33.25Q155.65-33.47 154.78-33.58 153.92-33.69 153.06-33.89L153.06-33.89Q152.75-33.96 152.49-34.01 152.23-34.06 152.05-34.17 151.87-34.28 151.77-34.47 151.67-34.67 151.67-35.03L151.67-35.03Q151.67-35.33 151.79-35.5 151.92-35.67 152.11-35.74 152.31-35.82 152.55-35.83 152.8-35.84 153.01-35.84L153.01-35.84Q153.67-35.84 154.26-35.78 154.85-35.72 155.48-35.72L155.48-35.72Q157.31-35.72 159.11-35.78 160.9-35.84 162.73-35.84L162.73-35.84 164.76-35.84Q164.86-35.84 165.09-35.83 165.32-35.82 165.6-35.79 165.88-35.77 166.11-35.75 166.34-35.74 166.44-35.72L166.44-35.72Q166.64-35.67 166.85-35.49 167.05-35.3 167.05-35.11L167.05-35.11Q167.05-34.84 166.87-34.68 166.69-34.52 166.44-34.33L166.44-34.33Q166.22-34.13 165.91-34.07 165.59-34.01 165.25-34.01L165.25-34.01Q164.93-34.01 164.61-34.02 164.29-34.03 163.98-34.03L163.98-34.03 163.68-34.03Q162.88-33.91 162.11-33.46 161.34-33.01 160.78-32.37L160.78-32.37Q160.41-31.86 160.08-31.16 159.75-30.47 159.46-29.72 159.17-28.98 158.94-28.27 158.7-27.56 158.51-27.03L158.51-27.03Q158.09-25.71 157.54-24.44 156.99-23.17 156.58-21.85L156.58-21.85Q156.34-21.17 156.13-20.46 155.92-19.75 155.65-19.12L155.65-19.12Q155.6-19.04 155.53-18.86 155.46-18.68 155.36-18.48 155.26-18.29 155.18-18.13 155.09-17.97 155.04-17.92L155.04-17.92Q155.02-17.9 154.94-17.8 154.87-17.7 154.78-17.6 154.7-17.5 154.64-17.42 154.58-17.33 154.58-17.31L154.58-17.31Q154.55-17.29 154.53-17.16 154.5-17.04 154.48-16.91 154.46-16.77 154.43-16.66 154.41-16.55 154.41-16.53L154.41-16.53Q154.41-16.5 154.33-16.35 154.26-16.19 154.17-16 154.09-15.82 154.03-15.66 153.97-15.5 153.97-15.45L153.97-15.45Q153.94-15.43 153.92-15.3 153.89-15.16 153.88-15.01 153.87-14.87 153.86-14.72 153.84-14.58 153.84-14.55L153.84-14.55Q153.67-13.96 153.38-13.46 153.09-12.96 152.89-12.43L152.89-12.43Q152.53-11.43 152.22-10.58 151.92-9.74 151.38-8.74L151.38-8.74 151.28-8.69Q151.23-8.64 151.23-8.64L151.23-8.64 151.21-8.62 151.21-8.74Q151.21-9.52 151.32-10.14 151.43-10.77 151.59-11.34 151.75-11.91 151.94-12.49 152.14-13.06 152.28-13.77L152.28-13.77Q152.43-14.67 152.64-15.54 152.84-16.41 153.06-17.31L153.06-17.31Q153.06-17.33 153.1-17.43 153.14-17.53 153.17-17.65 153.21-17.77 153.26-17.88 153.31-17.99 153.36-18.04L153.36-18.04Q153.36-18.12 153.49-18.29 153.63-18.46 153.67-18.51L153.67-18.51Q153.67-18.55 153.74-18.79 153.8-19.02 153.84-19.12L153.84-19.12Q153.84-19.19 153.88-19.41 153.92-19.63 153.97-19.9 154.02-20.17 154.06-20.39 154.11-20.61 154.14-20.68L154.14-20.68Q154.14-20.7 154.25-20.98 154.36-21.26 154.41-21.41L154.41-21.41Q154.41-21.44 154.46-21.52 154.5-21.61 154.57-21.7 154.63-21.8 154.68-21.9 154.72-22 154.75-22.02L154.75-22.02Q154.75-22.09 154.76-22.31 154.77-22.53 154.8-22.79 154.82-23.05 154.85-23.27 154.87-23.49 154.92-23.54L154.92-23.54Q154.92-23.58 155-23.75 155.09-23.93 155.19-24.13 155.29-24.34 155.37-24.52 155.46-24.71 155.48-24.78L155.48-24.78Q155.53-24.9 155.65-25.18 155.77-25.46 155.82-25.56L155.82-25.56Q155.82-25.56 155.83-25.7 155.85-25.83 155.87-25.98 155.9-26.12 155.92-26.26 155.94-26.39 155.97-26.42L155.97-26.42Q155.99-26.51 156.12-26.93 156.24-27.34 156.4-27.8 156.55-28.25 156.69-28.65 156.82-29.05 156.87-29.15L156.87-29.15Q156.87-29.17 156.88-29.32 156.9-29.47 156.92-29.63 156.95-29.79 156.98-29.92 157.02-30.05 157.04-30.05L157.04-30.05Q157.09-30.35 157.29-30.53 157.48-30.71 157.48-30.96ZM145.28-3.93L145.28-3.93Q145.18-4.2 144.95-4.91 144.71-5.62 144.45-6.42 144.18-7.23 143.93-7.93 143.69-8.64 143.59-8.91L143.59-8.91Q143.59-8.96 143.58-9.07 143.57-9.18 143.54-9.3 143.52-9.42 143.51-9.53 143.49-9.64 143.47-9.67L143.47-9.67Q143.42-9.74 143.29-10.02 143.15-10.3 142.99-10.61 142.83-10.91 142.7-11.17 142.57-11.43 142.52-11.47L142.52-11.47Q142.52-11.55 142.47-11.73 142.42-11.91 142.37-12.12 142.32-12.33 142.28-12.5 142.25-12.67 142.22-12.72L142.22-12.72Q141.83-13.87 141.38-15 140.93-16.14 140.56-17.31L140.56-17.31Q140.56-17.33 140.54-17.47 140.51-17.6 140.49-17.76 140.47-17.92 140.44-18.05 140.42-18.19 140.39-18.21L140.39-18.21Q140.12-19.7 139.49-21.28 138.85-22.85 138.29-24.32L138.29-24.32Q138.24-24.32 138.21-24.56 138.17-24.8 138.17-24.93L138.17-24.93Q137.93-25.9 137.62-26.68 137.32-27.47 136.95-28.54L136.95-28.54Q136.71-29.2 136.5-30.05 136.29-30.91 135.97-31.69 135.66-32.47 135.14-33.03 134.63-33.59 133.75-33.72L133.75-33.72Q133.68-33.72 133.43-33.74 133.19-33.76 132.91-33.8 132.63-33.84 132.38-33.86 132.14-33.89 132.07-33.89L132.07-33.89Q131.73-33.91 131.36-34.14 130.99-34.38 130.99-34.79L130.99-34.79Q130.99-35.42 131.42-35.63 131.85-35.84 132.43-35.84L132.43-35.84 132.68-35.84Q132.7-35.84 132.79-35.82 132.87-35.79 132.97-35.78 133.07-35.77 133.17-35.74 133.26-35.72 133.29-35.72L133.29-35.72 135.09-35.72Q135.14-35.72 135.33-35.64 135.51-35.57 135.56-35.57L135.56-35.57 136.05-35.57 136.61-35.57Q136.68-35.57 136.99-35.6 137.29-35.62 137.62-35.64 137.95-35.67 138.26-35.69 138.56-35.72 138.63-35.72L138.63-35.72 143.59-35.72Q144.08-35.82 144.45-35.83 144.81-35.84 145.3-35.84L145.3-35.84Q145.54-35.84 145.82-35.83 146.11-35.82 146.36-35.73 146.62-35.64 146.79-35.46 146.96-35.28 146.96-34.94L146.96-34.94Q146.96-34.64 146.84-34.48 146.72-34.33 146.51-34.24 146.3-34.16 146.06-34.12 145.81-34.08 145.59-34.03L145.59-34.03Q144.81-33.79 144.09-33.63 143.37-33.47 142.52-33.42L142.52-33.42Q142.18-33.23 142.04-32.84 141.91-32.45 141.91-32.03L141.91-32.03Q141.91-31.76 142.02-31.48 142.13-31.2 142.27-30.92 142.42-30.64 142.54-30.35 142.66-30.05 142.69-29.74L142.69-29.74 142.69-29.54 142.69-29Q142.74-28.96 142.93-28.77 143.13-28.59 143.13-28.54L143.13-28.54Q143.18-28.54 143.24-28.41 143.3-28.27 143.3-28.22L143.3-28.22Q143.32-28.15 143.4-27.92 143.47-27.69 143.54-27.42 143.62-27.15 143.68-26.9 143.74-26.66 143.76-26.54L143.76-26.54Q143.81-26.44 143.91-26.05 144.01-25.66 144.1-25.21 144.2-24.76 144.27-24.37 144.35-23.97 144.37-23.88L144.37-23.88Q144.37-23.8 144.47-23.62 144.57-23.44 144.68-23.23 144.79-23.02 144.87-22.84 144.96-22.66 144.98-22.63L144.98-22.63Q145.08-22.36 145.21-22.01 145.35-21.66 145.47-21.28 145.59-20.9 145.68-20.52 145.76-20.14 145.76-19.85L145.76-19.85Q145.76-19.8 145.74-19.71 145.72-19.63 145.72-19.56L145.72-19.56Q145.98-19.12 146.13-18.76 146.28-18.41 146.39-18.05 146.5-17.7 146.58-17.33 146.67-16.97 146.79-16.53L146.79-16.53Q146.84-16.41 147-15.94 147.16-15.48 147.34-14.93 147.52-14.38 147.67-13.9 147.81-13.43 147.86-13.33L147.86-13.33Q147.89-13.26 147.96-12.96 148.03-12.67 148.11-12.34 148.18-12.01 148.24-11.72 148.3-11.43 148.35-11.35L148.35-11.35Q148.5-10.94 148.79-10.58 149.08-10.23 149.08-9.77L149.08-9.77Q149.08-9.55 149.32-8.96 149.55-8.37 149.87-7.42L149.87-7.42Q150.04-6.91 150.1-6.67 150.16-6.42 150.16-5.91L150.16-5.91Q150.16-5.22 149.95-4.61 149.74-4 149.52-3.32L149.52-3.32Q149.52-3.2 149.44-2.86 149.35-2.51 149.26-2.14 149.16-1.76 149.07-1.43 148.99-1.1 148.96-1.03L148.96-1.03Q148.89-0.78 148.78-0.42 148.67-0.05 148.51 0.28 148.35 0.61 148.12 0.85 147.89 1.1 147.57 1.1L147.57 1.1Q147.28 1.1 147.12 0.87 146.96 0.63 146.87 0.34 146.79 0.05 146.75-0.26 146.72-0.56 146.67-0.71L146.67-0.71Q146.67-0.73 146.63-0.83 146.59-0.93 146.53-1.03 146.47-1.12 146.41-1.21 146.35-1.29 146.33-1.32L146.33-1.32Q146.33-1.39 146.22-1.68 146.11-1.98 145.98-2.32 145.86-2.66 145.74-2.95 145.62-3.25 145.59-3.32L145.59-3.32Q145.54-3.37 145.42-3.6 145.3-3.83 145.28-3.93ZM170.44-0.17L170.44-0.17 170.32-0.17Q170.25-0.17 169.97-0.11 169.69-0.05 169.57 0L169.57 0 163.93 0Q163.88-0.07 163.8-0.17L163.8-0.17Q163.66-0.37 163.63-0.44L163.63-0.44 163.63-0.59Q163.63-0.9 163.89-1.07 164.15-1.25 164.49-1.32 164.83-1.39 165.19-1.42 165.56-1.44 165.76-1.51L165.76-1.51Q165.93-1.61 166.16-1.79 166.39-1.98 166.49-2.12L166.49-2.12Q166.51-2.2 166.55-2.4 166.59-2.61 166.61-2.83 166.64-3.05 166.65-3.25 166.66-3.44 166.66-3.52L166.66-3.52Q166.71-4 166.86-4.5 167-5 167-5.49L167-5.49 167-8.4Q167-8.42 167.03-8.54 167.05-8.67 167.06-8.79 167.07-8.91 167.1-9.02 167.12-9.13 167.12-9.16L167.12-9.16 167.12-9.28 167.12-9.3Q167.12-9.42 167.07-9.72 167.03-10.01 167-10.13L167-10.13 166.9-15.92 166.88-16.36 166.88-20.19Q166.88-20.24 166.73-20.46 166.59-20.68 166.49-20.8L166.49-20.8Q166.29-21.09 165.83-21.25 165.37-21.41 164.88-21.53 164.39-21.66 164.01-21.83 163.63-22 163.63-22.31L163.63-22.31Q163.63-22.53 163.77-22.66 163.9-22.78 164.08-22.84 164.27-22.9 164.49-22.91 164.71-22.92 164.85-22.92L164.85-22.92 165.15-22.92Q165.24-22.92 165.54-22.91 165.83-22.9 166.13-22.88 166.44-22.85 166.72-22.84 167-22.83 167.12-22.8L167.12-22.8 167.27-22.63 167.39-22.63 167.44-22.63Q167.49-22.68 167.67-22.74 167.86-22.8 167.9-22.8L167.9-22.8 170.81-22.8Q170.91-22.8 171.2-22.84 171.49-22.88 171.54-22.92L171.54-22.92 178.31-22.92Q178.35-22.88 178.53-22.84 178.7-22.8 178.77-22.8L178.77-22.8 180.45-22.8Q180.94-22.75 181.21-22.46 181.48-22.17 181.67-21.7L181.67-21.7 181.67-19.9Q181.67-19.85 181.76-19.58 181.85-19.31 181.85-19.29L181.85-19.29 181.85-19.07Q181.85-18.97 181.81-18.7 181.77-18.43 181.7-18.15 181.63-17.87 181.52-17.65 181.41-17.43 181.26-17.43L181.26-17.43 181.24-17.43Q180.82-17.75 180.6-18.02 180.38-18.29 180.16-18.65L180.16-18.65Q180.11-18.75 180-18.97 179.89-19.19 179.82-19.29L179.82-19.29Q179.7-19.6 179.45-19.98 179.21-20.36 178.89-20.68 178.57-21 178.18-21.2 177.79-21.41 177.4-21.41L177.4-21.41 172.15-21.41Q172.03-21.53 171.95-21.56 171.86-21.58 171.71-21.58L171.71-21.58 171.54-21.58Q171.44-21.53 171.21-21.42 170.98-21.31 170.93-21.24L170.93-21.24Q170.91-21.24 170.9-21.13 170.88-21.02 170.87-20.89 170.86-20.75 170.85-20.64 170.83-20.53 170.81-20.51L170.81-20.51Q170.81-20.46 170.75-20.35 170.69-20.24 170.64-20.19L170.64-20.19Q170.64-19.95 170.61-19.36 170.59-18.77 170.57-18.13 170.54-17.48 170.52-16.89 170.49-16.31 170.47-16.09L170.47-16.09 170.47-15.55 170.47-15.19Q170.49-15.04 170.52-14.72 170.54-14.4 170.57-14.06 170.59-13.72 170.61-13.43 170.64-13.13 170.64-13.01L170.64-13.01Q170.74-12.94 170.96-12.85 171.18-12.77 171.41-12.7 171.64-12.62 171.86-12.59 172.08-12.55 172.2-12.55L172.2-12.55 172.49-12.55Q173.11-12.6 173.73-12.62 174.35-12.65 174.88-12.82 175.4-12.99 175.8-13.38 176.21-13.77 176.35-14.55L176.35-14.55Q176.35-14.62 176.38-14.84 176.4-15.06 176.43-15.31 176.45-15.55 176.47-15.77 176.5-15.99 176.5-16.09L176.5-16.09Q176.6-16.28 176.91-16.49 177.23-16.7 177.45-16.7L177.45-16.7Q177.82-16.7 177.99-16.42 178.16-16.14 178.16-15.82L178.16-15.82Q178.16-15.55 178.15-15.33 178.13-15.11 178.04-14.84L178.04-14.84 178.04-9.96Q178.13-9.77 178.15-9.57 178.16-9.38 178.16-9.18L178.16-9.18 178.16-8.52 178.16-8.08Q178.16-7.71 178.02-7.45 177.89-7.18 177.4-7.18L177.4-7.18Q177.01-7.18 176.79-7.46 176.57-7.74 176.45-8.18 176.33-8.62 176.25-9.11 176.18-9.59 176.07-10.03 175.96-10.47 175.78-10.75 175.6-11.04 175.23-11.04L175.23-11.04 174.96-11.04Q174.91-11.01 174.7-10.99 174.5-10.96 174.25-10.94 174.01-10.91 173.81-10.89 173.62-10.86 173.59-10.86L173.59-10.86 173.11-10.86 171.88-10.86Q171.42-10.77 171.15-10.51 170.88-10.25 170.74-9.9 170.59-9.55 170.55-9.13 170.52-8.72 170.52-8.28L170.52-8.28 170.52-7.42Q170.52-7.28 170.49-7.13 170.47-6.98 170.47-6.86L170.47-6.86Q170.47-6.81 170.4-6.57 170.32-6.32 170.32-6.27L170.32-6.27 170.32-4.71 170.32-4.22Q170.32-3.66 170.37-3.17 170.42-2.69 170.64-2.12L170.64-2.12Q171.23-1.78 171.77-1.76 172.32-1.73 172.93-1.68L172.93-1.68Q173.03-1.68 173.37-1.64 173.72-1.59 174.11-1.51 174.5-1.44 174.84-1.39 175.18-1.34 175.28-1.34L175.28-1.34 176.62-1.34Q176.62-1.32 176.76-1.21 176.89-1.1 176.96-1.07L176.96-1.07 177.01-1.07 177.08-1.07Q177.16-1.1 177.23-1.15L177.23-1.15Q177.28-1.17 177.33-1.2 177.38-1.22 177.4-1.22L177.4-1.22Q177.45-1.22 177.55-1.09 177.65-0.95 177.69-0.9L177.69-0.9 177.77-0.9 177.87-0.9Q177.87-0.95 177.91-1.09 177.96-1.22 178.04-1.22L178.04-1.22 178.16-1.22Q179.62-2.08 180.62-3.34 181.63-4.61 182.58-5.96L182.58-5.96 182.65-5.98Q182.68-5.98 182.69-5.97 182.7-5.96 182.72-5.96L182.72-5.96 182.75-5.96Q182.77-5.96 182.88-5.83 182.99-5.71 183.02-5.66L183.02-5.66 183.02-5.13 183.02-4.59Q183.02-4.44 182.97-4.05 182.92-3.66 182.88-3.22 182.85-2.78 182.8-2.39 182.75-2 182.75-1.86L182.75-1.86Q182.6-1.66 182.57-1.44 182.53-1.22 182.49-1.01 182.46-0.81 182.39-0.62 182.33-0.44 182.14-0.29L182.14-0.29Q181.99-0.29 181.59-0.28 181.19-0.27 180.75-0.24 180.31-0.22 179.92-0.2 179.53-0.17 179.38-0.17L179.38-0.17Q179.36-0.17 179.22-0.12 179.09-0.07 178.93 0 178.77 0.07 178.63 0.12 178.5 0.17 178.48 0.17L178.48 0.17Q178.43 0.17 178.16 0.09 177.89 0 177.87 0L177.87 0 177.77 0Q177.21 0 176.62 0.09 176.03 0.17 175.4 0.17L175.4 0.17Q174.15 0.17 172.92 0 171.69-0.17 170.44-0.17ZM186.58-0.49L186.58-0.49Q186.58-1.03 187.02-1.18 187.46-1.34 188.01-1.43 188.56-1.51 189.05-1.68 189.53-1.86 189.63-2.42L189.63-2.42Q189.63-2.59 189.66-3 189.68-3.42 189.7-3.88 189.73-4.35 189.75-4.75 189.78-5.15 189.78-5.32L189.78-5.32Q189.78-5.4 189.79-6.15 189.8-6.91 189.8-7.89 189.8-8.86 189.81-9.88 189.83-10.89 189.83-11.47L189.83-11.47Q189.83-11.82 189.81-12.7 189.8-13.57 189.8-14.58 189.8-15.58 189.79-16.46 189.78-17.33 189.78-17.68L189.78-17.68Q189.78-17.77 189.75-18.03 189.73-18.29 189.7-18.58 189.68-18.87 189.66-19.13 189.63-19.38 189.63-19.48L189.63-19.48Q189.56-19.92 189.18-20.13 188.8-20.34 188.3-20.48 187.8-20.63 187.29-20.8 186.77-20.97 186.46-21.34L186.46-21.34Q186.41-21.36 186.35-21.47 186.29-21.58 186.29-21.61L186.29-21.61 186.29-21.73Q186.29-21.95 186.43-22.11 186.58-22.27 186.8-22.36 187.02-22.46 187.26-22.51 187.51-22.56 187.7-22.56L187.7-22.56 187.82-22.56Q188.51-22.44 189.17-22.34 189.83-22.24 190.56-22.24L190.56-22.24 190.85-22.24Q191.44-22.27 192.4-22.29 193.37-22.31 194.32-22.34 195.27-22.36 195.99-22.38 196.71-22.39 196.81-22.39L196.81-22.39Q196.93-22.39 197.2-22.41 197.47-22.44 197.76-22.46 198.05-22.49 198.3-22.51 198.54-22.53 198.64-22.56L198.64-22.56Q198.69-22.58 198.76-22.63L198.76-22.63Q198.91-22.73 198.98-22.73L198.98-22.73Q199.08-22.75 199.3-22.8 199.52-22.85 199.59-22.85L199.59-22.85Q199.62-22.8 199.86-22.62 200.1-22.44 200.2-22.39L200.2-22.39Q200.57-22.19 201.08-22.12 201.59-22.05 201.96-21.78L201.96-21.78Q202.45-21.46 202.88-20.95 203.3-20.43 203.62-19.82 203.94-19.21 204.12-18.55 204.3-17.9 204.3-17.31L204.3-17.31Q204.3-16.63 204.25-16.02 204.21-15.41 204.13-14.6L204.13-14.6Q203.96-14.5 203.8-14.22 203.64-13.94 203.5-13.61 203.35-13.28 203.21-12.96 203.06-12.65 202.91-12.5L202.91-12.5Q202.86-12.45 202.7-12.32 202.55-12.18 202.35-12.04 202.16-11.89 201.96-11.76 201.76-11.62 201.67-11.57L201.67-11.57Q201.62-11.52 201.39-11.43 201.15-11.33 200.9-11.21 200.64-11.08 200.43-10.97 200.23-10.86 200.2-10.84L200.2-10.84Q200.15-10.79 200.04-10.73 199.93-10.67 199.81-10.6 199.69-10.52 199.59-10.44 199.49-10.35 199.49-10.25L199.49-10.25Q199.49-10.23 199.59-10.17 199.69-10.11 199.81-10.02 199.93-9.94 200.04-9.85 200.15-9.77 200.2-9.72L200.2-9.72Q200.2-9.69 200.24-9.61 200.28-9.52 200.32-9.42 200.37-9.33 200.41-9.23 200.45-9.13 200.45-9.11L200.45-9.11 200.74-8.81Q201.15-8.5 201.57-8.06 201.98-7.62 202.3-7.18L202.3-7.18Q202.33-7.13 202.44-6.86 202.55-6.59 202.57-6.57L202.57-6.57Q202.62-6.49 202.72-6.35 202.81-6.2 202.91-6.05 203.01-5.91 203.1-5.77 203.18-5.64 203.21-5.62L203.21-5.62Q203.25-5.57 203.45-5.37 203.64-5.18 203.88-4.94 204.11-4.71 204.32-4.52 204.52-4.32 204.6-4.27L204.6-4.27Q204.6-4.22 204.67-4.11 204.74-4 204.82-3.87 204.89-3.74 204.96-3.63 205.04-3.52 205.04-3.49L205.04-3.49Q205.23-3.22 205.81-2.81 206.38-2.39 206.98-1.97 207.58-1.54 208.05-1.16 208.53-0.78 208.53-0.59L208.53-0.59Q208.53-0.32 208.38-0.17 208.23-0.02 208.04 0.05 207.84 0.12 207.6 0.15 207.36 0.17 207.18 0.17L207.18 0.17Q206.87 0.17 206.62 0.15 206.38 0.12 206.06 0L206.06 0 202.91 0Q202.25-0.02 201.89-0.23 201.52-0.44 201.26-0.78 201.01-1.12 200.8-1.55 200.59-1.98 200.28-2.42L200.28-2.42Q200.25-2.49 200.06-2.75 199.86-3 199.63-3.28 199.4-3.56 199.2-3.8 199.01-4.03 198.98-4.1L198.98-4.1Q198.91-4.15 198.8-4.44 198.69-4.74 198.64-4.88L198.64-4.88Q198.59-4.93 198.53-5.11 198.47-5.3 198.47-5.32L198.47-5.32Q198.37-5.4 198.18-5.59 197.98-5.79 197.77-6.01 197.57-6.23 197.38-6.42 197.2-6.62 197.13-6.74L197.13-6.74Q197.08-6.76 196.96-7.02 196.83-7.28 196.81-7.35L196.81-7.35Q196.78-7.35 196.67-7.47 196.56-7.59 196.43-7.76 196.3-7.93 196.15-8.09 196-8.25 195.91-8.37L195.91-8.37Q195.76-8.54 195.58-8.78 195.39-9.01 195.19-9.22 194.98-9.42 194.76-9.57 194.54-9.72 194.29-9.72L194.29-9.72 194.1-9.72Q194.07-9.5 194.05-8.91 194.03-8.33 194-7.67 193.98-7.01 193.95-6.42 193.93-5.83 193.93-5.62L193.93-5.62 193.93-5.49 193.93-5.32Q193.93-4.93 193.94-4.35 193.95-3.76 194-3.2L194-3.2Q194.05-2.56 194.1-1.86L194.1-1.86 194.37-1.51Q194.44-1.49 194.66-1.46 194.88-1.44 195.14-1.43 195.39-1.42 195.61-1.4 195.83-1.39 195.91-1.39L195.91-1.39Q196.05-1.34 196.28-1.27 196.52-1.2 196.72-1.07 196.93-0.95 197.09-0.79 197.25-0.63 197.25-0.44L197.25-0.44Q197.25-0.1 196.81 0L196.81 0Q196.66 0.02 196.32 0.06 195.98 0.1 195.59 0.15 195.2 0.2 194.86 0.24 194.51 0.29 194.37 0.32L194.37 0.32 194.29 0.32 194.25 0.32Q194.15 0.27 193.92 0.16 193.68 0.05 193.63 0L193.63 0 190.85 0Q190.8 0 190.63 0.06 190.46 0.12 190.39 0.17L190.39 0.17Q190.36 0.2 190.18 0.32 190 0.44 189.95 0.44L189.95 0.44Q189.9 0.44 189.7 0.31 189.51 0.17 189.46 0.17L189.46 0.17 189.36 0.17Q189 0.17 188.72 0.33 188.43 0.49 188.07 0.49L188.07 0.49Q188 0.49 187.93 0.46 187.87 0.44 187.82 0.44L187.82 0.44Q187.7 0.44 187.48 0.35 187.26 0.27 187.07 0.15 186.87 0.02 186.73-0.13 186.58-0.29 186.58-0.49ZM193.93-11.52L193.93-11.52Q194.12-11.04 194.53-10.89 194.93-10.74 195.39-10.74L195.39-10.74Q196.3-10.74 197.07-11.24 197.83-11.74 198.4-12.49 198.96-13.23 199.27-14.12 199.59-15.01 199.59-15.82L199.59-15.82Q199.59-16.48 199.48-17.18 199.37-17.87 198.98-18.46L198.98-18.46Q198.91-18.53 198.7-18.73 198.49-18.92 198.27-19.14 198.05-19.36 197.85-19.54 197.64-19.73 197.57-19.78L197.57-19.78Q197.57-19.8 197.46-19.85 197.35-19.9 197.22-19.96 197.1-20.02 196.98-20.06 196.86-20.09 196.81-20.09L196.81-20.09Q196.78-20.12 196.67-20.19 196.56-20.26 196.44-20.35 196.32-20.43 196.2-20.5 196.08-20.56 196.03-20.56L196.03-20.56 195.78-20.56Q194.88-20.56 194.43-20.17 193.98-19.78 193.93-18.9L193.93-18.9Q193.9-18.82 193.88-18.35 193.85-17.87 193.83-17.27 193.81-16.67 193.78-16.05 193.76-15.43 193.76-15.06L193.76-15.06 193.76-14.84 193.76-14.6Q193.76-14.45 193.78-14 193.81-13.55 193.83-13.06 193.85-12.57 193.88-12.12 193.9-11.67 193.93-11.52ZM210.82-4.27L210.82-4.35 210.82-4.39Q210.82-4.52 210.84-4.74 210.87-4.96 210.89-5.18 210.92-5.4 210.94-5.58 210.97-5.76 210.97-5.79L210.97-5.79Q210.99-5.96 211.04-6.21 211.09-6.47 211.17-6.73 211.26-6.98 211.42-7.17 211.58-7.35 211.8-7.35L211.8-7.35Q211.94-7.35 212.03-7.32 212.11-7.3 212.21-7.13L212.21-7.13Q212.31-6.86 212.35-6.56 212.38-6.25 212.5-5.96L212.5-5.96Q212.5-5.91 212.57-5.8 212.63-5.69 212.65-5.62L212.65-5.62Q212.92-5.1 213.2-4.46 213.48-3.81 213.83-3.2 214.19-2.59 214.64-2.09 215.09-1.59 215.7-1.39L215.7-1.39Q215.73-1.34 215.97-1.34L215.97-1.34Q216.19-1.34 216.45-1.37 216.7-1.39 216.75-1.39L216.75-1.39Q216.8-1.39 217.03-1.31 217.27-1.22 217.36-1.22L217.36-1.22 217.53-1.22 217.66-1.22Q218.41-1.37 219.04-1.64 219.66-1.9 220.1-2.32 220.54-2.73 220.78-3.33 221.02-3.93 221.02-4.76L221.02-4.76 221.02-5.49Q220.98-5.59 220.88-5.87 220.78-6.15 220.66-6.47 220.54-6.79 220.43-7.06 220.32-7.32 220.24-7.42L220.24-7.42Q220.02-7.81 219.71-8.09 219.39-8.37 219.02-8.58 218.66-8.79 218.28-8.96 217.9-9.13 217.53-9.28L217.53-9.28Q217.44-9.28 217.34-9.35L217.34-9.35Q217.27-9.38 217.22-9.42L217.22-9.42Q217.17-9.47 216.98-9.59 216.8-9.72 216.75-9.72L216.75-9.72Q216.65-9.72 216.34-9.78 216.02-9.84 215.97-9.89L215.97-9.89Q215.87-9.94 215.67-10.03 215.46-10.13 215.21-10.25 214.97-10.38 214.76-10.49 214.56-10.6 214.46-10.67L214.46-10.67Q214.31-10.77 214.04-10.94 213.77-11.11 213.51-11.28 213.24-11.45 213.04-11.57 212.85-11.69 212.82-11.69L212.82-11.69Q212.46-11.96 212.16-12.49 211.87-13.01 211.72-13.38L211.72-13.38Q211.67-13.53 211.6-13.72 211.53-13.92 211.45-14.11 211.38-14.31 211.32-14.44 211.26-14.58 211.26-14.6L211.26-14.6 211.26-17.31Q211.26-17.36 211.32-17.53 211.38-17.7 211.43-17.8L211.43-17.8Q211.53-17.97 211.69-18.31 211.85-18.65 212.02-18.99 212.19-19.34 212.32-19.6 212.46-19.87 212.5-19.92L212.5-19.92Q212.68-20.21 212.91-20.39 213.14-20.56 213.4-20.7 213.65-20.85 213.88-21.01 214.12-21.17 214.29-21.41L214.29-21.41Q214.38-21.44 214.63-21.48 214.87-21.53 215.14-21.58 215.41-21.63 215.64-21.68 215.87-21.73 215.97-21.73L215.97-21.73Q216.02-21.73 216.2-21.81 216.39-21.9 216.44-21.9L216.44-21.9 217.22-21.9Q217.27-21.92 217.34-21.95L217.34-21.95Q217.39-21.97 217.44-22 217.48-22.02 217.53-22.02L217.53-22.02 217.78-22.02Q218.56-22.02 219.08-21.88 219.61-21.73 220.24-21.41L220.24-21.41Q220.29-21.41 220.48-21.37 220.66-21.34 220.71-21.29L220.71-21.29Q220.85-21.22 220.98-21.09 221.1-20.97 221.22-20.84 221.34-20.7 221.46-20.61 221.59-20.51 221.76-20.51L221.76-20.51Q221.93-20.51 222.07-20.61 222.22-20.7 222.36-20.84 222.49-20.97 222.62-21.07 222.76-21.17 222.95-21.17L222.95-21.17Q223.54-21.17 223.73-20.56L223.73-20.56 223.73-19.68 223.73-18.87Q223.69-18.07 223.64-17.2 223.59-16.33 223.27-15.55L223.27-15.55Q223.22-15.38 223.15-15.36 223.08-15.33 222.95-15.33L222.95-15.33Q222.73-15.33 222.42-15.69 222.1-16.04 221.81-16.52 221.51-16.99 221.29-17.48 221.07-17.97 221.02-18.26L221.02-18.26 221.02-18.53Q220.95-18.97 220.73-19.25 220.51-19.53 220.22-19.73 219.93-19.92 219.57-20.08 219.22-20.24 218.85-20.39L218.85-20.39Q218.8-20.39 218.57-20.53 218.34-20.68 218.24-20.7L218.24-20.7Q218.17-20.65 218.07-20.63L218.07-20.63Q218-20.61 217.91-20.58 217.83-20.56 217.78-20.56L217.78-20.56Q217.09-20.21 216.51-19.95 215.92-19.68 215.5-19.29 215.07-18.9 214.82-18.32 214.58-17.75 214.58-16.85L214.58-16.85Q214.58-16.24 214.85-15.83 215.12-15.43 215.53-15.15 215.95-14.87 216.44-14.64 216.92-14.4 217.36-14.16L217.36-14.16Q217.85-13.84 218.31-13.54 218.78-13.23 219.29-13.09L219.29-13.09Q219.56-13.01 219.9-12.92 220.24-12.82 220.59-12.7 220.93-12.57 221.24-12.43 221.56-12.28 221.76-12.13L221.76-12.13Q223.08-11.18 223.8-9.81 224.52-8.45 224.52-6.81L224.52-6.81Q224.52-5.88 224.2-4.94 223.88-4 223.39-3.15L223.39-3.15Q222.15-1.46 220.29-0.73 218.44 0 216.39 0L216.39 0 216.14 0Q216.09 0 215.91-0.09 215.73-0.17 215.7-0.17L215.7-0.17Q215.58-0.2 215.31-0.27 215.04-0.34 214.77-0.42 214.51-0.49 214.27-0.55 214.04-0.61 213.97-0.61L213.97-0.61Q213.41-0.78 212.88-0.94 212.36-1.1 211.87-1.51L211.87-1.51Q211.82-1.56 211.67-1.66 211.53-1.76 211.38-1.88 211.23-2 211.11-2.14 210.99-2.27 210.97-2.42L210.97-2.42Q210.97-2.44 210.94-2.66 210.92-2.88 210.89-3.17 210.87-3.47 210.84-3.77 210.82-4.08 210.82-4.27L210.82-4.27ZM235.11-0.17L235.11-0.17 234.99-0.17Q234.91-0.17 234.63-0.11 234.35-0.05 234.23 0L234.23 0 228.59 0Q228.54-0.07 228.47-0.17L228.47-0.17Q228.32-0.37 228.3-0.44L228.3-0.44 228.3-0.59Q228.3-0.9 228.55-1.07 228.81-1.25 229.15-1.32 229.49-1.39 229.86-1.42 230.23-1.44 230.42-1.51L230.42-1.51Q230.59-1.61 230.82-1.79 231.06-1.98 231.15-2.12L231.15-2.12Q231.18-2.2 231.22-2.4 231.25-2.61 231.28-2.83 231.3-3.05 231.31-3.25 231.33-3.44 231.33-3.52L231.33-3.52Q231.37-4 231.52-4.5 231.67-5 231.67-5.49L231.67-5.49 231.67-8.4Q231.67-8.42 231.69-8.54 231.72-8.67 231.73-8.79 231.74-8.91 231.76-9.02 231.79-9.13 231.79-9.16L231.79-9.16 231.79-9.28 231.79-9.3Q231.79-9.42 231.74-9.72 231.69-10.01 231.67-10.13L231.67-10.13 231.57-15.92 231.54-16.36 231.54-20.19Q231.54-20.24 231.4-20.46 231.25-20.68 231.15-20.8L231.15-20.8Q230.96-21.09 230.5-21.25 230.03-21.41 229.54-21.53 229.05-21.66 228.68-21.83 228.3-22 228.3-22.31L228.3-22.31Q228.3-22.53 228.43-22.66 228.57-22.78 228.75-22.84 228.93-22.9 229.15-22.91 229.37-22.92 229.52-22.92L229.52-22.92 229.81-22.92Q229.91-22.92 230.2-22.91 230.5-22.9 230.8-22.88 231.11-22.85 231.39-22.84 231.67-22.83 231.79-22.8L231.79-22.8 231.94-22.63 232.06-22.63 232.11-22.63Q232.16-22.68 232.34-22.74 232.52-22.8 232.57-22.8L232.57-22.8 235.48-22.8Q235.57-22.8 235.87-22.84 236.16-22.88 236.21-22.92L236.21-22.92 242.97-22.92Q243.02-22.88 243.19-22.84 243.36-22.8 243.43-22.8L243.43-22.8 245.12-22.8Q245.61-22.75 245.88-22.46 246.14-22.17 246.34-21.7L246.34-21.7 246.34-19.9Q246.34-19.85 246.43-19.58 246.51-19.31 246.51-19.29L246.51-19.29 246.51-19.07Q246.51-18.97 246.47-18.7 246.44-18.43 246.36-18.15 246.29-17.87 246.18-17.65 246.07-17.43 245.92-17.43L245.92-17.43 245.9-17.43Q245.49-17.75 245.27-18.02 245.05-18.29 244.83-18.65L244.83-18.65Q244.78-18.75 244.67-18.97 244.56-19.19 244.48-19.29L244.48-19.29Q244.36-19.6 244.12-19.98 243.87-20.36 243.56-20.68 243.24-21 242.85-21.2 242.46-21.41 242.07-21.41L242.07-21.41 236.82-21.41Q236.7-21.53 236.61-21.56 236.53-21.58 236.38-21.58L236.38-21.58 236.21-21.58Q236.11-21.53 235.88-21.42 235.65-21.31 235.6-21.24L235.6-21.24Q235.57-21.24 235.56-21.13 235.55-21.02 235.54-20.89 235.52-20.75 235.51-20.64 235.5-20.53 235.48-20.51L235.48-20.51Q235.48-20.46 235.41-20.35 235.35-20.24 235.3-20.19L235.3-20.19Q235.3-19.95 235.28-19.36 235.26-18.77 235.23-18.13 235.21-17.48 235.18-16.89 235.16-16.31 235.13-16.09L235.13-16.09 235.13-15.55 235.13-15.19Q235.16-15.04 235.18-14.72 235.21-14.4 235.23-14.06 235.26-13.72 235.28-13.43 235.3-13.13 235.3-13.01L235.3-13.01Q235.4-12.94 235.62-12.85 235.84-12.77 236.07-12.7 236.31-12.62 236.53-12.59 236.75-12.55 236.87-12.55L236.87-12.55 237.16-12.55Q237.77-12.6 238.39-12.62 239.02-12.65 239.54-12.82 240.07-12.99 240.47-13.38 240.87-13.77 241.02-14.55L241.02-14.55Q241.02-14.62 241.04-14.84 241.07-15.06 241.09-15.31 241.12-15.55 241.14-15.77 241.16-15.99 241.16-16.09L241.16-16.09Q241.26-16.28 241.58-16.49 241.9-16.7 242.12-16.7L242.12-16.7Q242.48-16.7 242.65-16.42 242.82-16.14 242.82-15.82L242.82-15.82Q242.82-15.55 242.81-15.33 242.8-15.11 242.7-14.84L242.7-14.84 242.7-9.96Q242.8-9.77 242.81-9.57 242.82-9.38 242.82-9.18L242.82-9.18 242.82-8.52 242.82-8.08Q242.82-7.71 242.69-7.45 242.56-7.18 242.07-7.18L242.07-7.18Q241.68-7.18 241.46-7.46 241.24-7.74 241.12-8.18 240.99-8.62 240.92-9.11 240.85-9.59 240.74-10.03 240.63-10.47 240.44-10.75 240.26-11.04 239.89-11.04L239.89-11.04 239.63-11.04Q239.58-11.01 239.37-10.99 239.16-10.96 238.92-10.94 238.67-10.91 238.48-10.89 238.28-10.86 238.26-10.86L238.26-10.86 237.77-10.86 236.55-10.86Q236.09-10.77 235.82-10.51 235.55-10.25 235.4-9.9 235.26-9.55 235.22-9.13 235.18-8.72 235.18-8.28L235.18-8.28 235.18-7.42Q235.18-7.28 235.16-7.13 235.13-6.98 235.13-6.86L235.13-6.86Q235.13-6.81 235.06-6.57 234.99-6.32 234.99-6.27L234.99-6.27 234.99-4.71 234.99-4.22Q234.99-3.66 235.04-3.17 235.08-2.69 235.3-2.12L235.3-2.12Q235.89-1.78 236.44-1.76 236.99-1.73 237.6-1.68L237.6-1.68Q237.7-1.68 238.04-1.64 238.38-1.59 238.77-1.51 239.16-1.44 239.5-1.39 239.85-1.34 239.94-1.34L239.94-1.34 241.29-1.34Q241.29-1.32 241.42-1.21 241.55-1.1 241.63-1.07L241.63-1.07 241.68-1.07 241.75-1.07Q241.82-1.1 241.9-1.15L241.9-1.15Q241.95-1.17 241.99-1.2 242.04-1.22 242.07-1.22L242.07-1.22Q242.12-1.22 242.21-1.09 242.31-0.95 242.36-0.9L242.36-0.9 242.43-0.9 242.53-0.9Q242.53-0.95 242.58-1.09 242.63-1.22 242.7-1.22L242.7-1.22 242.82-1.22Q244.29-2.08 245.29-3.34 246.29-4.61 247.24-5.96L247.24-5.96 247.32-5.98Q247.34-5.98 247.35-5.97 247.37-5.96 247.39-5.96L247.39-5.96 247.41-5.96Q247.44-5.96 247.55-5.83 247.66-5.71 247.68-5.66L247.68-5.66 247.68-5.13 247.68-4.59Q247.68-4.44 247.63-4.05 247.58-3.66 247.55-3.22 247.51-2.78 247.46-2.39 247.41-2 247.41-1.86L247.41-1.86Q247.27-1.66 247.23-1.44 247.19-1.22 247.16-1.01 247.12-0.81 247.06-0.62 247-0.44 246.8-0.29L246.8-0.29Q246.66-0.29 246.25-0.28 245.85-0.27 245.41-0.24 244.97-0.22 244.58-0.2 244.19-0.17 244.04-0.17L244.04-0.17Q244.02-0.17 243.89-0.12 243.75-0.07 243.59 0 243.43 0.07 243.3 0.12 243.17 0.17 243.14 0.17L243.14 0.17Q243.09 0.17 242.82 0.09 242.56 0 242.53 0L242.53 0 242.43 0Q241.87 0 241.29 0.09 240.7 0.17 240.07 0.17L240.07 0.17Q238.82 0.17 237.59 0 236.35-0.17 235.11-0.17Z" opacity="1" transform="matrix(1,0,0,1,0,0)" fill="#bb84e8" class="wordmark-text-0" data-fill-palette-color="primary" id="text-0"></path></svg></g></svg></g></svg></g></svg></g><g transform="matrix(1,0,0,1,400.83171,0)"><svg viewBox="0 0 85.95467387811999 157.4044965393073" height="157.4044965393073" width="85.95467387811999"><g><svg xmlns="http://www.w3.org/2000/svg" xmlns:xlink="http://www.w3.org/1999/xlink" version="1.1" x="0" y="0" viewBox="-217 376.9 48 87.90000000000003" style="enable-background:new -247 370.9 100 100;" xml:space="preserve" height="157.4044965393073" width="85.95467387811999" class="icon-icon-0" data-fill-palette-color="accent" id="icon-0"><g fill="#35185a" data-fill-palette-color="accent"><path d="M-176.5 464.8h-33c-4.1 0-7.5-3.4-7.5-7.5v-72.9c0-4.1 3.4-7.5 7.5-7.5h33c4.1 0 7.5 3.4 7.5 7.5v72.9C-169 461.5-172.4 464.8-176.5 464.8zM-209.5 377.9c-3.6 0-6.5 2.9-6.5 6.5v72.9c0 3.6 2.9 6.5 6.5 6.5h33c3.6 0 6.5-2.9 6.5-6.5v-72.9c0-3.6-2.9-6.5-6.5-6.5H-209.5zM-193 461.9c-2.6 0-4.7-2.1-4.7-4.7s2.1-4.7 4.7-4.7 4.7 2.1 4.7 4.7S-190.4 461.9-193 461.9zM-193 453.5c-2 0-3.7 1.7-3.7 3.7s1.7 3.7 3.7 3.7 3.7-1.7 3.7-3.7S-191 453.5-193 453.5zM-172.3 450.5h-41.3v-60.8h41.3V450.5zM-212.6 449.5h39.3v-58.8h-39.3V449.5zM-185.2 385.9h-15.5c-1 0-1.7-0.7-1.7-1.7s0.7-1.7 1.7-1.7h15.5c1 0 1.7 0.7 1.7 1.7S-184.2 385.9-185.2 385.9zM-200.7 383.5c-0.4 0-0.7 0.3-0.7 0.7s0.3 0.7 0.7 0.7h15.5c0.4 0 0.7-0.3 0.7-0.7s-0.3-0.7-0.7-0.7H-200.7z" fill="#35185a" data-fill-palette-color="accent"></path></g><path d="M-193 403.4c-1 0-1.8 0.8-1.8 1.8v5.6c0 1 0.8 1.8 1.8 1.8s1.8-0.8 1.8-1.8v-5.6C-191.1 404.3-191.9 403.4-193 403.4z" fill="#35185a" data-fill-palette-color="accent"></path><path d="M-201.1 403.4L-201.1 403.4c-1 0-1.8 0.8-1.8 1.8v5.6c0 1 0.8 1.8 1.8 1.8l0 0c1 0 1.8-0.8 1.8-1.8v-5.6C-199.3 404.3-200.1 403.4-201.1 403.4z" fill="#35185a" data-fill-palette-color="accent"></path><path d="M-184.8 403.4c-1 0-1.8 0.8-1.8 1.8v5.6c0 1 0.8 1.8 1.8 1.8s1.8-0.8 1.8-1.8v-5.6C-182.9 404.3-183.8 403.4-184.8 403.4z" fill="#35185a" data-fill-palette-color="accent"></path><path d="M-181.9 408.1v2.8c0 1.6-1.3 2.9-2.9 2.9s-2.9-1.3-2.9-2.9v-3h-2.4v3c0 1.6-1.3 2.9-2.9 2.9s-2.9-1.3-2.9-2.9v-3h-2.4v3c0 1.6-1.3 2.9-2.9 2.9s-2.9-1.3-2.9-2.9v-2.8c-1.9 0.5-3.4 2.3-3.4 4.3v19.8c0 2.5 2 4.5 4.5 4.5h19.8c2.5 0 4.5-2 4.5-4.5v-19.8C-178.6 410.3-180 408.6-181.9 408.1zM-190.2 431.1c0 0.7-0.6 1.2-1.2 1.2h-11.4c-0.7 0-1.2-0.6-1.2-1.2v-11.8c0-0.7 0.6-1.2 1.2-1.2h11.4c0.7 0 1.2 0.6 1.2 1.2V431.1zM-181.8 431.1c0 0.7-0.6 1.2-1.2 1.2h-3c-0.7 0-1.2-0.6-1.2-1.2v-3c0-0.7 0.6-1.2 1.2-1.2h3c0.7 0 1.2 0.6 1.2 1.2V431.1zM-181.8 422.3c0 0.7-0.6 1.2-1.2 1.2h-3c-0.7 0-1.2-0.6-1.2-1.2v-3c0-0.7 0.6-1.2 1.2-1.2h3c0.7 0 1.2 0.6 1.2 1.2V422.3z" fill="#35185a" data-fill-palette-color="accent"></path><path d="M-192.1 423c0-0.1 0-0.2-0.1-0.3l-1.2-1.3c-0.1-0.1-0.2-0.1-0.3-0.1-0.1 0-0.2 0-0.3 0.1l-4.2 4.1-1.6-1.9c-0.1-0.1-0.2-0.2-0.3-0.2-0.1 0-0.2 0-0.3 0.1l-1.3 1.1c-0.1 0.1-0.1 0.2-0.2 0.3 0 0.1 0 0.2 0.1 0.3l3.1 3.7c0 0 0 0 0 0 0.1 0.1 0.2 0.1 0.3 0.1 0.1 0 0.2 0 0.3-0.1 0 0 0 0 0 0l5.9-5.8C-192.1 423.2-192.1 423.1-192.1 423z" fill="#35185a" data-fill-palette-color="accent"></path></svg></g></svg></g></svg></g></svg></g></svg></g><defs></defs></svg><rect width="395.52" height="247.2" fill="none" stroke="none" visibility="hidden"></rect></g></svg></g></svg>