<svg xmlns="http://www.w3.org/2000/svg" version="1.1" xmlns:xlink="http://www.w3.org/1999/xlink" xmlns:svgjs="http://svgjs.dev/svgjs" width="1500" height="378" viewBox="0 0 1500 378"><g transform="matrix(1,0,0,1,-0.9090909090909918,-0.07662779878177162)"><svg viewBox="0 0 396 100" data-background-color="#fafafa" preserveAspectRatio="xMidYMid meet" height="378" width="1500" xmlns="http://www.w3.org/2000/svg" xmlns:xlink="http://www.w3.org/1999/xlink"><g id="tight-bounds" transform="matrix(1,0,0,1,0.2400000000000091,0.020271904439624677)"><svg viewBox="0 0 395.52 99.95945619112074" height="99.95945619112074" width="395.52"><g><svg viewBox="0 0 500.06834621339766 126.38187688583213" height="99.95945619112074" width="395.52"><g><rect width="5.698624041830644" height="63.50689313513064" x="83.9318581877172" y="31.437491875350744" fill="#130912" opacity="1" stroke-width="0" stroke="transparent" fill-opacity="1" class="rect-yte-0" data-fill-palette-color="primary" rx="1%" id="yte-0" data-palette-color="#130912"></rect></g><g transform="matrix(1,0,0,1,104.54834621339769,31.595469221458032)"><svg viewBox="0 0 395.52 63.190938442916064" height="63.190938442916064" width="395.52"><g id="textblocktransform"><svg viewBox="0 0 395.52 63.190938442916064" height="63.190938442916064" width="395.52" id="textblock"><g><svg viewBox="0 0 395.52 63.190938442916064" height="63.190938442916064" width="395.52"><g transform="matrix(1,0,0,1,0,0)"><svg width="395.52" viewBox="3.15 -35.522727253575 229.2325 36.622727253575" height="63.190938442916064" data-palette-color="#130912"><path d="M3.7 0.1Q3.4 0.1 3.35-0.08 3.3-0.25 3.3-0.75L3.3-0.75Q3.25-1.3 3.25-2.6L3.25-2.6Q3.25-3 3.2-3.48 3.15-3.95 3.15-4.75L3.15-4.75 3.15-11.6Q3.15-12.6 3.23-13.55 3.3-14.5 3.3-14.95L3.3-14.95Q3.5-17.25 3.5-19.35L3.5-19.35Q3.5-21.95 3.35-23.45L3.35-23.45Q3.25-25.15 3.25-26.55L3.25-26.55Q3.25-29.7 3.4-33.9L3.4-33.9Q3.4-34.55 3.65-34.77 3.9-35 4.35-35L4.35-35 5.1-34.95Q5.55-34.95 6.55-34.88 7.55-34.8 9-34.8L9-34.8Q10.65-34.8 12.9-35.05L12.9-35.05Q15.6-35.25 16.5-35.25L16.5-35.25Q18.55-35.25 20.25-35.1L20.25-35.1 22.05-35.05Q22.7-35.05 22.9-34.75 23.1-34.45 23.1-33.65L23.1-33.65Q23.1-33.2 23.2-32.1L23.2-32.1Q23.3-30.8 23.3-29.85L23.3-29.85Q23.3-28.85 23.15-28L23.15-28Q23.1-27.25 22.45-27.25L22.45-27.25Q22.25-27.25 21.9-27.35 21.55-27.45 21.35-27.5L21.35-27.5Q20.6-27.65 17-27.65L17-27.65 15.1-27.7Q14.45-27.75 13.2-27.75L13.2-27.75Q12.3-27.75 11.85-27.7L11.85-27.7Q10.35-27.6 9.2-27.6L9.2-27.6 6.55-27.65Q6.15-27.65 6.1-27.48 6.05-27.3 6.05-26.65L6.05-26.65Q6.05-25.75 6-25.1L6-25.1Q5.9-23.1 5.9-21.85L5.9-21.85 5.9-18.9Q5.9-17.85 5.95-17.3L5.95-17.3Q6.35-17.25 7.3-17.25L7.3-17.25Q8.15-17.2 10.8-17.2L10.8-17.2Q11.9-17.2 14-17.3L14-17.3Q15.6-17.4 16.1-17.4L16.1-17.4Q16.8-17.4 17.5-17.32 18.2-17.25 18.55-17.25L18.55-17.25Q19.2-17.25 19.2-16.65L19.2-16.65Q19.2-16.45 19.15-16.07 19.1-15.7 19.1-15.1L19.1-15.1 19.15-12.45Q19.15-12 19.05-11.83 18.95-11.65 18.7-11.65L18.7-11.65Q18.55-11.65 18.28-11.73 18-11.8 17.8-11.8L17.8-11.8Q17.35-11.8 16.13-11.85 14.9-11.9 12.8-11.9L12.8-11.9Q10.55-11.9 8.9-11.7 7.25-11.5 6.9-11.5L6.9-11.5Q6.35-11.5 6.25-11.55L6.25-11.55Q6-11.55 5.95-11.6L5.95-11.6 5.95-6.6Q6.3-6.6 6.5-6.65L6.5-6.65 7.9-6.7 13.8-6.75Q15.6-6.75 16.65-6.7L16.65-6.7 20.1-6.65 22.2-6.7Q22.8-6.7 23-6.43 23.2-6.15 23.2-5.65L23.2-5.65 23.15-4.65 23.1-1.15Q23.1-0.35 22.75-0.18 22.4 0 21.75-0.03 21.1-0.05 20.7-0.05L20.7-0.05Q18.55-0.05 17-0.1L17-0.1 11.9-0.15Q11.3-0.15 5.9 0L5.9 0 4 0.05 3.7 0.1ZM34.65 0.25Q33.95 0.25 33.75-0.1 33.55-0.45 33.4-1.3L33.4-1.3Q32.9-3.2 31.92-6.7 30.95-10.2 30.2-12.9L30.2-12.9Q29.8-14.3 28.47-19.65 27.15-25 26.65-26.9L26.65-26.9 26.3-28.4Q26.2-28.7 26.2-28.8L26.2-28.8Q26.2-29.15 26.7-29.15L26.7-29.15Q26.95-29.15 27.32-29.08 27.7-29 28.1-29L28.1-29 30.25-29.05 33.05-29.15Q33.8-29.25 34.05-28.95 34.3-28.65 34.5-27.9L34.5-27.9Q34.8-27.15 35.35-23.35L35.35-23.35 35.65-21.45Q35.95-19.3 36.85-15.7L36.85-15.7 37.8-11.6 38.35-14.05Q38.65-15.1 39.1-17.75L39.1-17.75Q39.15-18.4 40.15-22.25L40.15-22.25Q41.35-26.7 41.3-27.7L41.3-27.7Q41.2-28.75 41.5-29 41.8-29.25 42.25-29.23 42.7-29.2 42.85-29.2L42.85-29.2Q47.05-29.2 48.15-29.1L48.15-29.1Q48.95-29 48.95-28.6L48.95-28.6Q48.95-28.45 48.85-27.95L48.85-27.95Q48.5-27.05 47.75-23.9L47.75-23.9 47.35-22.05Q46.05-15.9 45.15-13.05L45.15-13.05Q44.55-10.55 43.65-5.2L43.65-5.2Q43.5-4.35 43.2-2.7 42.9-1.05 42.8-0.75L42.8-0.75Q42.65-0.05 42.1-0.05L42.1-0.05 41.35-0.1Q40.45-0.1 38.5 0.05L38.5 0.05Q35.3 0.25 34.65 0.25L34.65 0.25ZM63.1 1.1Q55.6 1.1 53.1-3.98 50.6-9.05 50.6-14.85L50.6-14.85Q50.6-20.45 52.3-23.83 54-27.2 56.42-28.55 58.85-29.9 61.3-29.9L61.3-29.9Q65.9-29.9 68.22-27.25 70.55-24.6 71.22-21.08 71.9-17.55 71.9-13.45L71.9-13.45Q71.9-13.1 71.4-13L71.4-13Q69.75-13 63.8-12.45L63.8-12.45Q62.85-12.35 61.5-12.23 60.15-12.1 58.5-12L58.5-12Q58.95-7.15 63.75-7.15L63.75-7.15Q65.34-7.15 66.22-7.45 67.09-7.75 69.05-8.7L69.05-8.7Q69.4-8.7 69.67-8.3 69.95-7.9 70.45-6.65L70.45-6.65Q70.59-6.4 70.82-5.7 71.05-5 71.25-4.65L71.25-4.65Q72.2-2.25 72.15-2.15L72.15-2.15Q72.05-1.95 71.59-1.6L71.59-1.6Q70.55-0.55 68.22 0.28 65.9 1.1 63.1 1.1L63.1 1.1ZM58.5-14.9L64.3-15.4Q63.9-21.1 61.55-21.1L61.55-21.1Q60.15-21.1 59.4-19.48 58.65-17.85 58.5-14.9L58.5-14.9ZM77.94 0Q77.64 0 77.52-0.15 77.39-0.3 77.39-0.65L77.39-0.65 77.34-3.45Q77.09-13.2 77.14-14.7L77.14-14.7 77.14-29.2Q77.14-29.9 77.79-29.9L77.79-29.9 78.69-29.9 79.79-29.85Q80.19-29.85 80.19-29L80.19-29 80.14-27.2 81.64-27.95Q83.59-28.9 85.12-29.38 86.64-29.85 88.99-29.85L88.99-29.85Q91.29-29.85 92.82-29.13 94.34-28.4 95.64-26.6L95.64-26.6Q97.04-24.9 97.04-19.2L97.04-19.2 97.09-10.5 97.04-7.5Q96.94-4.3 96.94-2.8L96.94-2.8Q96.94-1.5 96.99-1.25L96.99-1.25Q97.09-0.75 97.09-0.7L97.09-0.7Q97.09-0.4 96.97-0.28 96.84-0.15 96.54-0.1L96.54-0.1Q96.14 0 95.27 0 94.39 0 94.19 0L94.19 0Q93.84 0 93.74-0.2 93.64-0.4 93.64-1.15L93.64-1.15 93.84-9.45 93.94-14.1 93.99-17.6Q93.99-22.2 93.34-23.6L93.34-23.6Q92.69-24.9 92.17-25.53 91.64-26.15 90.77-26.43 89.89-26.7 88.24-26.7L88.24-26.7Q86.24-26.7 84.07-25.85 81.89-25 80.49-23.95L80.49-23.95Q80.49-20 80.54-17.05L80.54-17.05 80.54-10.15Q80.64-7.65 80.69-4.85 80.74-2.05 80.74-0.8L80.74-0.8Q80.74-0.4 80.52-0.2 80.29 0 79.64 0L79.64 0 77.94 0ZM108.39 0.2Q106.39 0.2 105.39-0.4 104.39-1 104.09-2.08 103.79-3.15 103.79-5L103.79-5 103.84-8.1 104.09-14 104.24-18.4 104.24-25.7Q101.84-25.7 101.49-26.5L101.49-26.5Q101.34-26.9 101.34-27.35L101.34-27.35Q101.34-27.85 101.42-28.3 101.49-28.75 101.49-29.15L101.49-29.15Q102.39-29.1 104.24-29.1L104.24-29.1 104.29-29.3 104.34-31.2 104.34-33.35Q104.29-34.55 104.52-34.98 104.74-35.4 105.19-35.4L105.19-35.4Q105.44-35.4 105.59-35.35L105.59-35.35 105.69-35.35Q105.79-35.35 106.04-35.38 106.29-35.4 106.49-35.3L106.49-35.3Q107.49-35.15 107.49-34.45L107.49-34.45Q107.49-34.3 107.39-33.3L107.39-33.3Q107.14-31.55 107.04-29.1L107.04-29.1 111.84-29.1Q112.24-29.1 112.49-28.43 112.74-27.75 112.74-27L112.74-27Q112.74-26 112.29-25.85L112.29-25.85Q111.34-25.55 109.99-25.55L109.99-25.55Q108.79-25.55 106.99-25.75L106.99-25.75 106.99-13.9 106.94-11.9Q106.79-9.95 106.79-7.85L106.79-7.85 106.79-6.85Q106.79-5.25 107.49-4.48 108.19-3.7 109.34-3.7L109.34-3.7Q110.44-3.7 111.24-3.78 112.04-3.85 112.39-3.85L112.39-3.85Q112.94-3.85 112.94-1.9L112.94-1.9 113.14-1.1Q113.29-0.75 113.09-0.7L113.09-0.7Q111.49-0.1 110.72 0.05 109.94 0.2 108.39 0.2L108.39 0.2ZM124.79-0.05Q123.99-0.05 123.76-0.48 123.54-0.9 123.39-1.95L123.39-1.95Q122.79-4.45 119.79-15.7L119.79-15.7Q119.39-17.25 117.04-27.5L117.04-27.5 115.39-34.5Q115.29-34.9 115.29-35L115.29-35Q115.29-35.4 115.84-35.4L115.84-35.4Q116.14-35.4 116.54-35.33 116.94-35.25 117.39-35.25L117.39-35.25 119.89-35.35 122.94-35.45Q123.84-35.55 124.14-35.18 124.44-34.8 124.64-33.9L124.64-33.9Q124.79-33.25 125.49-28.5L125.49-28.5 125.84-26.05Q126.09-24.45 127.19-19.05L127.19-19.05 128.29-14.1 128.94-17.05Q129.39-19.05 129.74-21.6L129.74-21.6Q129.79-22.3 130.21-24.08 130.64-25.85 130.84-26.75L130.84-26.75Q132.34-32.3 132.24-33.65L132.24-33.65Q132.14-34.95 132.49-35.25 132.84-35.55 133.31-35.52 133.79-35.5 133.94-35.5L133.94-35.5Q138.69-35.5 139.89-35.35L139.89-35.35Q140.44-35.3 140.64-35.15 140.84-35 140.84-34.75L140.84-34.75Q140.84-34.5 140.69-33.95L140.69-33.95Q140.44-33.3 139.74-30.15L139.74-30.15 139.49-29.05Q137.64-19.6 136.59-15.85L136.59-15.85Q135.79-12.65 134.84-6.35L134.84-6.35Q133.99-1.5 133.89-1.25L133.89-1.25Q133.74-0.75 133.59-0.58 133.44-0.4 133.14-0.4L133.14-0.4 132.34-0.45 128.99-0.25Q125.49-0.05 124.79-0.05L124.79-0.05ZM154.04 1.1Q146.54 1.1 144.04-3.98 141.54-9.05 141.54-14.85L141.54-14.85Q141.54-20.45 143.24-23.83 144.94-27.2 147.36-28.55 149.79-29.9 152.24-29.9L152.24-29.9Q156.84-29.9 159.16-27.25 161.49-24.6 162.16-21.08 162.84-17.55 162.84-13.45L162.84-13.45Q162.84-13.1 162.34-13L162.34-13Q160.69-13 154.74-12.45L154.74-12.45Q153.79-12.35 152.44-12.23 151.09-12.1 149.44-12L149.44-12Q149.89-7.15 154.69-7.15L154.69-7.15Q156.29-7.15 157.16-7.45 158.04-7.75 159.99-8.7L159.99-8.7Q160.34-8.7 160.61-8.3 160.89-7.9 161.39-6.65L161.39-6.65Q161.54-6.4 161.76-5.7 161.99-5 162.19-4.65L162.19-4.65Q163.14-2.25 163.09-2.15L163.09-2.15Q162.99-1.95 162.54-1.6L162.54-1.6Q161.49-0.55 159.16 0.28 156.84 1.1 154.04 1.1L154.04 1.1ZM149.44-14.9L155.24-15.4Q154.84-21.1 152.49-21.1L152.49-21.1Q151.09-21.1 150.34-19.48 149.59-17.85 149.44-14.9L149.44-14.9ZM174.63 0.15Q174.58 0.15 173.86 0.05 173.13-0.05 171.93-0.05L171.93-0.05 168.08 0Q167.33 0 167.33-0.6L167.33-0.6Q167.33-0.8 167.36-1.95 167.38-3.1 167.38-5.9L167.38-5.9Q167.38-8.75 167.56-11.4 167.73-14.05 167.73-14.35L167.73-14.35 168.03-23.4 168.08-28.55Q168.08-29.1 168.33-29.15L168.33-29.15Q168.58-29.15 169.43-29.1 170.28-29.05 171.58-29.05L171.58-29.05Q172.58-29.05 173.56-29.1 174.53-29.15 174.73-29.15L174.73-29.15Q174.88-29.15 175.01-28.98 175.13-28.8 175.13-28.7L175.13-28.7 175.23-27.3Q176.93-28.4 179.21-29.18 181.48-29.95 182.68-29.95L182.68-29.95Q182.98-29.95 183.08-29.9L183.08-29.9Q183.18-29.85 183.31-29.48 183.43-29.1 183.53-28.85L183.53-28.85Q184.03-27.6 184.18-25.85L184.18-25.85Q184.23-25.05 184.43-24L184.43-24Q184.53-23.55 184.53-22.9L184.53-22.9Q184.53-22.5 184.48-22.45L184.48-22.45Q184.08-21.85 183.28-21.63 182.48-21.4 180.93-21.2L180.93-21.2Q178.98-21 177.58-20.6L177.58-20.6 175.38-20.1 175.43-18.1Q175.43-16.45 175.48-16.4L175.48-16.4 175.53-12.15Q175.63-8.85 175.63-3.15L175.63-3.15Q175.63-0.95 175.43-0.2L175.43-0.2Q175.43 0.15 174.63 0.15L174.63 0.15ZM196.48 0.85Q193.43 0.85 191.43 0.1 189.43-0.65 189.01-1.03 188.58-1.4 187.13-2.85L187.13-2.85Q186.83-3.15 186.98-3.25L186.98-3.25Q187.08-3.5 187.33-3.8L187.33-3.8 187.98-4.6Q188.23-4.95 188.88-5.75L188.88-5.75Q189.03-5.9 189.23-5.9L189.23-5.9Q189.43-5.9 189.78-5.68 190.13-5.45 190.38-5.2L190.38-5.2Q190.43-5.15 190.96-4.73 191.48-4.3 192.48-3.98 193.48-3.65 194.68-3.65L194.68-3.65Q196.28-3.65 197.43-4.28 198.58-4.9 198.58-6.9L198.58-6.9Q198.58-8.5 197.91-9.6 197.23-10.7 196.23-11.43 195.23-12.15 193.48-13.1L193.48-13.1Q191.53-14.2 190.33-15.08 189.13-15.95 188.31-17.45 187.48-18.95 187.48-21.15L187.48-21.15Q187.48-23.75 188.88-25.75 190.28-27.75 192.71-28.83 195.13-29.9 198.08-29.9L198.08-29.9Q202.78-29.9 205.21-27.93 207.63-25.95 207.73-25.9L207.73-25.9Q207.93-25.75 207.93-25.55L207.93-25.55Q207.93-25.4 207.83-25.25 207.73-25.1 207.68-24.95L207.68-24.95Q207.48-24.65 207.01-23.9 206.53-23.15 206.23-22.85L206.23-22.85Q206.13-22.7 205.98-22.48 205.83-22.25 205.71-22.2 205.58-22.15 205.38-22.15L205.38-22.15Q205.18-22.25 203.98-23.23 202.78-24.2 201.31-25.05 199.83-25.9 198.78-25.9L198.78-25.9Q197.68-25.9 197.23-25.18 196.78-24.45 196.78-22.75L196.78-22.75Q196.78-21.5 197.38-20.65 197.98-19.8 198.53-19.45 199.08-19.1 200.63-18.3L200.63-18.3Q202.48-17.55 203.86-16.75 205.23-15.95 206.51-13.95 207.78-11.95 207.78-8.65L207.78-8.65Q207.78 0.85 196.48 0.85L196.48 0.85ZM223.33 1.1Q215.83 1.1 213.33-3.98 210.83-9.05 210.83-14.85L210.83-14.85Q210.83-20.45 212.53-23.83 214.23-27.2 216.65-28.55 219.08-29.9 221.53-29.9L221.53-29.9Q226.13-29.9 228.45-27.25 230.78-24.6 231.45-21.08 232.13-17.55 232.13-13.45L232.13-13.45Q232.13-13.1 231.63-13L231.63-13Q229.98-13 224.03-12.45L224.03-12.45Q223.08-12.35 221.73-12.23 220.38-12.1 218.73-12L218.73-12Q219.18-7.15 223.98-7.15L223.98-7.15Q225.58-7.15 226.45-7.45 227.33-7.75 229.28-8.7L229.28-8.7Q229.63-8.7 229.9-8.3 230.18-7.9 230.68-6.65L230.68-6.65Q230.83-6.4 231.05-5.7 231.28-5 231.48-4.65L231.48-4.65Q232.43-2.25 232.38-2.15L232.38-2.15Q232.28-1.95 231.83-1.6L231.83-1.6Q230.78-0.55 228.45 0.28 226.13 1.1 223.33 1.1L223.33 1.1ZM218.73-14.9L224.53-15.4Q224.13-21.1 221.78-21.1L221.78-21.1Q220.38-21.1 219.63-19.48 218.88-17.85 218.73-14.9L218.73-14.9Z" opacity="1" transform="matrix(1,0,0,1,0,0)" fill="#130912" class="wordmark-text-0" data-fill-palette-color="primary" id="text-0"></path></svg></g></svg></g></svg></g></svg></g><g><svg viewBox="0 0 69.01399420386734 126.38187688583213" height="126.38187688583213" width="69.01399420386734"><g><svg xmlns="http://www.w3.org/2000/svg" xml:space="preserve" viewBox="-217 376.9 48 87.90000000000003" x="0" y="0" height="126.38187688583213" width="69.01399420386734" class="icon-icon-0" data-fill-palette-color="accent" id="icon-0"><path d="M-176.5 464.8h-33c-4.1 0-7.5-3.4-7.5-7.5v-72.9c0-4.1 3.4-7.5 7.5-7.5h33c4.1 0 7.5 3.4 7.5 7.5v72.9c0 4.2-3.4 7.5-7.5 7.5m-33-86.9c-3.6 0-6.5 2.9-6.5 6.5v72.9c0 3.6 2.9 6.5 6.5 6.5h33c3.6 0 6.5-2.9 6.5-6.5v-72.9c0-3.6-2.9-6.5-6.5-6.5z m16.5 84c-2.6 0-4.7-2.1-4.7-4.7s2.1-4.7 4.7-4.7 4.7 2.1 4.7 4.7-2.1 4.7-4.7 4.7m0-8.4c-2 0-3.7 1.7-3.7 3.7s1.7 3.7 3.7 3.7 3.7-1.7 3.7-3.7-1.7-3.7-3.7-3.7m20.7-3h-41.3v-60.8h41.3z m-40.3-1h39.3v-58.8h-39.3z m27.4-63.6h-15.5c-1 0-1.7-0.7-1.7-1.7s0.7-1.7 1.7-1.7h15.5c1 0 1.7 0.7 1.7 1.7s-0.7 1.7-1.7 1.7m-15.5-2.4c-0.4 0-0.7 0.3-0.7 0.7s0.3 0.7 0.7 0.7h15.5c0.4 0 0.7-0.3 0.7-0.7s-0.3-0.7-0.7-0.7z" fill="#5e0786" data-fill-palette-color="accent"></path><path d="M-193 403.4c-1 0-1.8 0.8-1.8 1.8v5.6c0 1 0.8 1.8 1.8 1.8s1.8-0.8 1.8-1.8v-5.6c0.1-0.9-0.7-1.8-1.8-1.8M-201.1 403.4c-1 0-1.8 0.8-1.8 1.8v5.6c0 1 0.8 1.8 1.8 1.8s1.8-0.8 1.8-1.8v-5.6c0-0.9-0.8-1.8-1.8-1.8M-184.8 403.4c-1 0-1.8 0.8-1.8 1.8v5.6c0 1 0.8 1.8 1.8 1.8s1.8-0.8 1.8-1.8v-5.6c0.1-0.9-0.8-1.8-1.8-1.8" fill="#5e0786" data-fill-palette-color="accent"></path><path d="M-181.9 408.1v2.8c0 1.6-1.3 2.9-2.9 2.9s-2.9-1.3-2.9-2.9v-3h-2.4v3c0 1.6-1.3 2.9-2.9 2.9s-2.9-1.3-2.9-2.9v-3h-2.4v3c0 1.6-1.3 2.9-2.9 2.9s-2.9-1.3-2.9-2.9v-2.8c-1.9 0.5-3.4 2.3-3.4 4.3v19.8c0 2.5 2 4.5 4.5 4.5h19.8c2.5 0 4.5-2 4.5-4.5v-19.8c0.1-2.1-1.3-3.8-3.2-4.3m-8.3 23c0 0.7-0.6 1.2-1.2 1.2h-11.4c-0.7 0-1.2-0.6-1.2-1.2v-11.8c0-0.7 0.6-1.2 1.2-1.2h11.4c0.7 0 1.2 0.6 1.2 1.2z m8.4 0c0 0.7-0.6 1.2-1.2 1.2h-3c-0.7 0-1.2-0.6-1.2-1.2v-3c0-0.7 0.6-1.2 1.2-1.2h3c0.7 0 1.2 0.6 1.2 1.2z m0-8.8c0 0.7-0.6 1.2-1.2 1.2h-3c-0.7 0-1.2-0.6-1.2-1.2v-3c0-0.7 0.6-1.2 1.2-1.2h3c0.7 0 1.2 0.6 1.2 1.2z" fill="#5e0786" data-fill-palette-color="accent"></path><path d="M-192.1 423c0-0.1 0-0.2-0.1-0.3l-1.2-1.3c-0.1-0.1-0.2-0.1-0.3-0.1s-0.2 0-0.3 0.1l-4.2 4.1-1.6-1.9c-0.1-0.1-0.2-0.2-0.3-0.2s-0.2 0-0.3 0.1l-1.3 1.1c-0.1 0.1-0.1 0.2-0.2 0.3 0 0.1 0 0.2 0.1 0.3l3.1 3.7c0.1 0.1 0.2 0.1 0.3 0.1s0.2 0 0.3-0.1l5.9-5.8c0.1 0.1 0.1 0 0.1-0.1" fill="#5e0786" data-fill-palette-color="accent"></path></svg></g></svg></g></svg></g><defs></defs></svg><rect width="395.52" height="99.95945619112074" fill="none" stroke="none" visibility="hidden"></rect></g></svg></g></svg>