<svg xmlns="http://www.w3.org/2000/svg" version="1.1" xmlns:xlink="http://www.w3.org/1999/xlink" xmlns:svgjs="http://svgjs.dev/svgjs" width="1500" height="1500" viewBox="0 0 1500 1500"><rect width="1500" height="1500" fill="#ffffff"></rect><g transform="matrix(0.6666666666666666,0,0,0.6666666666666666,249.39393939393938,629.8244849338683)"><svg viewBox="0 0 396 95" data-background-color="#ffffff" preserveAspectRatio="xMidYMid meet" height="359" width="1500" xmlns="http://www.w3.org/2000/svg" xmlns:xlink="http://www.w3.org/1999/xlink"><g id="tight-bounds" transform="matrix(1,0,0,1,0.2400000000000091,0.20198021427233925)"><svg viewBox="0 0 395.52 94.59603957145531" height="94.59603957145531" width="395.52"><g><svg viewBox="0 0 535.4007229846368 128.05114274383212" height="94.59603957145531" width="395.52"><g transform="matrix(1,0,0,1,139.88072298463686,39.56966175697485)"><svg viewBox="0 0 395.52 48.911819229882404" height="48.911819229882404" width="395.52"><g id="textblocktransform"><svg viewBox="0 0 395.52 48.911819229882404" height="48.911819229882404" width="395.52" id="textblock"><g><svg viewBox="0 0 395.52 48.911819229882404" height="48.911819229882404" width="395.52"><g transform="matrix(1,0,0,1,0,0)"><svg width="395.52" viewBox="2.34 -38.84 317.63000000000005 39.28" height="48.911819229882404" data-palette-color="#7726ba"><path d="M28.88-16.55L35.13-16.55 35.13 0 2.34 0 2.34-8.59 7.06-8.59 7.06-30.25 2.34-30.25 2.34-38.84 35.13-38.84 35.13-23.39 28.88-23.39 26.54-30.25 19.56-30.25 19.56-23.9 25.81-23.9 25.81-17.5 19.56-17.5 19.56-8.59 26.54-8.59 28.88-16.55ZM70.53-18.6L67.23-18.6 59.57 0 47.12 0 38.96-18.6 35.37-18.6 35.37-26.15 54.12-26.15 54.12-18.6 51.41-18.6 55.66-6.3 60.37-18.6 57.27-18.6 57.27-26.15 70.53-26.15 70.53-18.6ZM87.93 0.44L87.93 0.44Q83.39 0.44 80.05-1.25L80.05-1.25Q76.68-2.91 74.89-6.01 73.09-9.11 73.09-13.26L73.09-13.26Q73.09-17.36 74.85-20.39L74.85-20.39Q76.58-23.39 79.76-25.02 82.93-26.66 87.2-26.66L87.2-26.66Q91.13-26.66 94.14-25.12L94.14-25.12Q97.14-23.56 98.79-20.7 100.43-17.85 100.43-14.04L100.43-14.04Q100.43-12.72 100.04-11.55L100.04-11.55 84.83-11.55Q84.83-9.25 86.57-7.87 88.3-6.49 90.74-6.49L90.74-6.49Q92.6-6.49 94.82-7.14 97.04-7.79 99.29-9.16L99.29-9.16 99.7-9.01 99.7-2.44Q97.19-1 94.54-0.28 91.89 0.44 87.93 0.44ZM84.83-16.55L84.83-16.55 84.83-15.84 91.08-15.84 91.08-16.36Q91.08-18.09 90.29-19.35 89.5-20.61 87.93-20.61L87.93-20.61Q86.64-20.61 85.74-19.32 84.83-18.04 84.83-16.55ZM137.18-16.6L137.18-16.6 137.18-7.06 140.57-7.06 140.57 0 125.46 0 125.46-16.65Q125.46-17.7 124.78-18.51 124.11-19.31 123.16-19.31L123.16-19.31Q121.38-19.31 120.92-17.53L120.92-17.53Q120.43-15.7 120.43-12.4L120.43-12.4 120.43-7.06 120.48-7.06 120.48 0 105.22 0 105.22-7.06 108.76-7.06 108.76-18.6 105.22-18.6 105.22-25.2 120.43-26.66 120.43-23Q122.11-25 124.26-25.83 126.41-26.66 129.12-26.66L129.12-26.66Q137.18-26.66 137.18-16.6ZM155.31 0.44L155.31 0.44Q145.91 0.44 145.91-9.35L145.91-9.35 145.91-18.99 142.01-18.99 142.01-26.15 145.91-26.15 145.91-31.74 157.61-34.35 157.61-26.15 162.29-26.15 162.29-18.99 157.61-18.99 157.61-10.21Q157.61-9.11 158.44-8.37 159.27-7.64 160.51-7.64L160.51-7.64Q161.42-7.64 162.29-7.79L162.29-7.79 162.29-1Q159.07 0.44 155.31 0.44ZM206.7-30.25L202.28-30.25 192.59 0 178.28 0 169.49-30.25 165.44-30.25 165.44-38.84 186.54-38.84 186.54-30.25 183.75-30.25 188.63-12.6 192.93-30.25 189.73-30.25 189.73-38.84 206.7-38.84 206.7-30.25ZM221.27 0.44L221.27 0.44Q216.73 0.44 213.39-1.25L213.39-1.25Q210.02-2.91 208.22-6.01 206.43-9.11 206.43-13.26L206.43-13.26Q206.43-17.36 208.19-20.39L208.19-20.39Q209.92-23.39 213.1-25.02 216.27-26.66 220.54-26.66L220.54-26.66Q224.47-26.66 227.48-25.12L227.48-25.12Q230.48-23.56 232.13-20.7 233.77-17.85 233.77-14.04L233.77-14.04Q233.77-12.72 233.38-11.55L233.38-11.55 218.17-11.55Q218.17-9.25 219.91-7.87 221.64-6.49 224.08-6.49L224.08-6.49Q225.94-6.49 228.16-7.14 230.38-7.79 232.63-9.16L232.63-9.16 233.04-9.01 233.04-2.44Q230.53-1 227.88-0.28 225.23 0.44 221.27 0.44ZM218.17-16.55L218.17-16.55 218.17-15.84 224.42-15.84 224.42-16.36Q224.42-18.09 223.63-19.35 222.84-20.61 221.27-20.61L221.27-20.61Q219.98-20.61 219.08-19.32 218.17-18.04 218.17-16.55ZM256.31-7.35L256.31 0 237.56 0 237.56-7.35 240.71-7.35 240.71-18.6 237.56-18.6 237.56-25.2 252.4-26.66 252.4-22.41Q253.18-23.63 254.69-24.6 256.21-25.56 257.93-26.11 259.65-26.66 261.02-26.66L261.02-26.66 261.02-16.31Q258.16-17.26 256.31-17.26L256.31-17.26Q253.96-17.26 253.18-15.91 252.4-14.55 252.4-12.35L252.4-12.35 252.4-7.35 256.31-7.35ZM277.91 0.44L277.91 0.44Q272.9 0.44 269.05-2.2L269.05-2.2 268.24 0 263.7 0 263.7-9.64 269.15-9.64Q269.46-7.79 270.88-6.32 272.29-4.86 274.15-4.86L274.15-4.86Q274.86-4.86 275.38-5.25 275.91-5.64 275.91-6.54L275.91-6.54Q275.91-7.45 274.88-8.18L274.88-8.18Q273.83-8.94 271.76-9.91L271.76-9.91Q269.24-11.16 267.66-12.18L267.66-12.18Q266.04-13.21 264.87-14.88 263.7-16.55 263.7-18.9L263.7-18.9Q263.7-21.31 265.29-23.1L265.29-23.1Q266.87-24.85 269.46-25.76 272.05-26.66 275.1-26.66L275.1-26.66Q279.08-26.66 282.5-24.56L282.5-24.56 283.11-26.15 287.16-26.15 287.16-18.36 282.45-18.36Q281.84-19.95 280.69-20.85 279.55-21.75 278.01-21.75L278.01-21.75Q276.2-21.75 276.2-20.61L276.2-20.61Q276.23-19.82 277.15-19.26L277.15-19.26Q278.08-18.73 280.16-17.8L280.16-17.8Q281.45-17.26 282.52-16.72 283.6-16.19 284.45-15.7L284.45-15.7Q286.16-14.7 287.43-12.88 288.7-11.06 288.7-8.35L288.7-8.35Q288.7-5.47 287.21-3.52L287.21-3.52Q285.72-1.54 283.26-0.55 280.79 0.44 277.91 0.44ZM307.47 0.44L307.47 0.44Q302.93 0.44 299.59-1.25L299.59-1.25Q296.22-2.91 294.42-6.01 292.63-9.11 292.63-13.26L292.63-13.26Q292.63-17.36 294.39-20.39L294.39-20.39Q296.12-23.39 299.29-25.02 302.47-26.66 306.74-26.66L306.74-26.66Q310.67-26.66 313.67-25.12L313.67-25.12Q316.68-23.56 318.32-20.7 319.97-17.85 319.97-14.04L319.97-14.04Q319.97-12.72 319.58-11.55L319.58-11.55 304.37-11.55Q304.37-9.25 306.11-7.87 307.84-6.49 310.28-6.49L310.28-6.49Q312.14-6.49 314.36-7.14 316.58-7.79 318.83-9.16L318.83-9.16 319.24-9.01 319.24-2.44Q316.73-1 314.08-0.28 311.43 0.44 307.47 0.44ZM304.37-16.55L304.37-16.55 304.37-15.84 310.62-15.84 310.62-16.36Q310.62-18.09 309.83-19.35 309.04-20.61 307.47-20.61L307.47-20.61Q306.18-20.61 305.28-19.32 304.37-18.04 304.37-16.55Z" opacity="1" transform="matrix(1,0,0,1,0,0)" fill="#7726ba" class="wordmark-text-0" data-fill-palette-color="primary" id="text-0"></path></svg></g></svg></g></svg></g></svg></g><g><svg viewBox="0 0 128.33381634812315 128.05114274383212" height="128.05114274383212" width="128.33381634812315"><g><svg xmlns:x="http://ns.adobe.com/Extensibility/1.0/" xmlns:i="http://ns.adobe.com/AdobeIllustrator/10.0/" xmlns:graph="http://ns.adobe.com/Graphs/1.0/" xmlns="http://www.w3.org/2000/svg" xmlns:xlink="http://www.w3.org/1999/xlink" version="1.1" x="0" y="0" viewBox="4.6 4.7 90.80000000000001 90.60000000000001" enable-background="new 0 0 100 100" xml:space="preserve" height="128.05114274383212" width="128.33381634812315" class="icon-icon-0" data-fill-palette-color="accent" id="icon-0"><path d="M37.6 48.8c0 0.8-0.7 1.5-1.5 1.5h-5.6c-0.8 0-1.5-0.7-1.5-1.5v-5.6c0-0.8 0.7-1.5 1.5-1.5h5.6c0.8 0 1.5 0.7 1.5 1.5V48.8zM49.4 43.2c0-0.8-0.7-1.5-1.5-1.5h-5.6c-0.8 0-1.5 0.7-1.5 1.5v5.6c0 0.8 0.7 1.5 1.5 1.5h5.6c0.8 0 1.5-0.7 1.5-1.5V43.2zM61.2 43.2c0-0.8-0.7-1.5-1.5-1.5H54c-0.8 0-1.5 0.7-1.5 1.5v5.6c0 0.8 0.7 1.5 1.5 1.5h5.6c0.8 0 1.5-0.7 1.5-1.5V43.2zM37.6 54.6c0-0.8-0.7-1.5-1.5-1.5h-5.6c-0.8 0-1.5 0.7-1.5 1.5v5.6c0 0.8 0.7 1.5 1.5 1.5h5.6c0.8 0 1.5-0.7 1.5-1.5V54.6zM49.4 54.6c0-0.8-0.7-1.5-1.5-1.5h-5.6c-0.8 0-1.5 0.7-1.5 1.5v5.6c0 0.8 0.7 1.5 1.5 1.5h5.6c0.8 0 1.5-0.7 1.5-1.5V54.6zM59.7 53.1H54c-0.8 0-1.5 0.7-1.5 1.5v5.6c0 0.8 0.7 1.5 1.5 1.5h5.6c0.8 0 1.5-0.7 1.5-1.5v-5.6C61.2 53.8 60.5 53.1 59.7 53.1zM24.3 64.6h-5.6c-0.8 0-1.5 0.7-1.5 1.5v5.6c0 0.8 0.7 1.5 1.5 1.5h5.6c0.8 0 1.5-0.7 1.5-1.5v-5.6C25.8 65.3 25.2 64.6 24.3 64.6zM25.8 54.6c0-0.8-0.7-1.5-1.5-1.5h-5.6c-0.8 0-1.5 0.7-1.5 1.5v5.6c0 0.8 0.7 1.5 1.5 1.5h5.6c0.8 0 1.5-0.7 1.5-1.5V54.6zM47.9 64.6h-5.6c-0.8 0-1.5 0.7-1.5 1.5v5.6c0 0.8 0.7 1.5 1.5 1.5h5.6c0.8 0 1.5-0.7 1.5-1.5v-5.6C49.4 65.3 48.7 64.6 47.9 64.6zM36.1 64.6h-5.6c-0.8 0-1.5 0.7-1.5 1.5v5.6c0 0.8 0.7 1.5 1.5 1.5h5.6c0.8 0 1.5-0.7 1.5-1.5v-5.6C37.6 65.3 36.9 64.6 36.1 64.6zM65.8 41.7c-0.8 0-1.5 0.7-1.5 1.5v5.6c0 0.8 0.7 1.5 1.5 1.5h5.6c0.8 0 1.5-0.7 1.5-1.5v-5.6c0-0.8-0.7-1.5-1.5-1.5H65.8zM4.6 22.2v54.4c0 4.9 4 8.8 8.8 8.8h42.8c-0.7-2.2-1.1-4.5-1.1-6.8H13.5c-1.1 0-2-0.9-2-2V36.4h67.1v18.8c2.4 0 4.7 0.4 6.8 1V22.2c0-4.9-4-8.8-8.8-8.8h-9.9V7.9c0-1.8-1.4-3.2-3.2-3.2h-5c-1.8 0-3.2 1.4-3.2 3.2v5.5H34.9V7.9c0-1.8-1.4-3.2-3.2-3.2h-5c-1.8 0-3.2 1.4-3.2 3.2v5.5h-9.9C8.6 13.4 4.6 17.4 4.6 22.2zM95.4 78.4c0 9.3-7.6 16.9-16.9 16.9-9.3 0-16.9-7.6-16.9-16.9 0-9.3 7.6-16.9 16.9-16.9C87.8 61.5 95.4 69.1 95.4 78.4zM87 74.7l-3.2-3.2-7.4 7.4-3.1-3.1L69.9 79l3.1 3.1 3.2 3.3 3.3-3.2L87 74.7z" fill="#35185a" data-fill-palette-color="accent"></path></svg><g></g></g></svg></g></svg></g><defs></defs></svg><rect width="395.52" height="94.59603957145531" fill="none" stroke="none" visibility="hidden"></rect></g></svg></g></svg>